<svg width="24" height="24" viewBox="0 0 24 24" fill="none" xmlns="http://www.w3.org/2000/svg">
<path fill-rule="evenodd" clip-rule="evenodd" d="M7.16168 3H16.8388C17.3659 2.99998 17.8205 2.99997 18.1949 3.03058C18.5902 3.06289 18.9831 3.13424 19.3614 3.32698C19.9248 3.61405 20.3851 4.07224 20.6732 4.63781C20.8659 5.016 20.9372 5.40906 20.9695 5.80397C21 6.17815 21 6.6323 21 7.15839V16.8421C21 17.3682 21 17.8222 20.9695 18.1962C20.9372 18.591 20.8659 18.9838 20.6732 19.3619C20.3854 19.9269 19.9254 20.3859 19.3614 20.6732C18.9833 20.8659 18.5905 20.9372 18.1957 20.9695C17.8217 21 17.3677 21 16.8416 21H7.15839C6.6323 21 6.17815 21 5.80397 20.9695C5.40906 20.9372 5.016 20.8659 4.63781 20.6732C4.07276 20.3853 3.61431 19.9258 3.32698 19.3619C3.13421 18.9835 3.06288 18.5904 3.03057 18.1951C2.99997 17.8206 2.99998 17.3659 3 16.8388V7.16168C2.99998 6.63451 2.99997 6.17965 3.03057 5.80499C3.06286 5.40962 3.13416 5.01625 3.32698 4.63781C3.6146 4.07332 4.07332 3.6146 4.63781 3.32698C5.01625 3.13416 5.40962 3.06286 5.80499 3.03057C6.17965 2.99997 6.63451 2.99998 7.16168 3ZM5.9678 5.02393C5.69595 5.04614 5.59517 5.08383 5.54579 5.109C5.35763 5.20487 5.20487 5.35763 5.109 5.54579C5.08383 5.59517 5.04614 5.69595 5.02393 5.9678C5.00078 6.25126 5 6.62365 5 7.2002V16.8002C5 17.3768 5.00078 17.7489 5.02393 18.0322C5.04612 18.3037 5.08378 18.4044 5.109 18.4539C5.20516 18.6426 5.35819 18.7956 5.54579 18.8912C5.59501 18.9163 5.69554 18.9539 5.96686 18.9761C6.2498 18.9992 6.62146 19 7.19691 19H16.8031C17.3786 19 17.75 18.9992 18.0327 18.9761C18.3036 18.954 18.4041 18.9164 18.4534 18.8912C18.6421 18.7951 18.7956 18.6415 18.8912 18.4539C18.9164 18.4046 18.954 18.3041 18.9761 18.0332C18.9992 17.7505 19 17.379 19 16.8036V7.19691C19 6.62146 18.9992 6.2498 18.9761 5.96686C18.9539 5.69554 18.9163 5.59501 18.8912 5.54579C18.7959 5.35871 18.6427 5.20542 18.4534 5.109C18.4039 5.08375 18.3032 5.04611 18.0319 5.02393C17.7488 5.00078 17.3768 5 16.8002 5H7.2002C6.62365 5 6.25126 5.00078 5.9678 5.02393ZM16.6402 8.23178C17.0645 8.58534 17.1218 9.21591 16.7682 9.64019L11.7682 15.6402C11.5884 15.856 11.326 15.9862 11.0453 15.999C10.7646 16.0117 10.4916 15.9058 10.2929 15.7071L7.29289 12.7071C6.90237 12.3166 6.90237 11.6834 7.29289 11.2929C7.68342 10.9024 8.31658 10.9024 8.70711 11.2929L10.9328 13.5186L15.2318 8.35982C15.5853 7.93554 16.2159 7.87822 16.6402 8.23178Z" fill="#383B41"/>
</svg>
