<svg width="24" height="24" viewBox="0 0 24 24" fill="none" xmlns="http://www.w3.org/2000/svg">
<path fill-rule="evenodd" clip-rule="evenodd" d="M6.16168 4H17.8388C18.3659 3.99998 18.8205 3.99997 19.1949 4.03058C19.5902 4.06289 19.9831 4.13424 20.3614 4.32698C20.9248 4.61405 21.3851 5.07224 21.6732 5.63781C21.8659 6.016 21.9372 6.40906 21.9695 6.80397C22 7.17815 22 7.6323 22 8.15839V15.8416C22 16.3677 22 16.8217 21.9695 17.1957C21.9372 17.5905 21.8659 17.9833 21.6732 18.3614C21.3857 18.9257 20.9263 19.3855 20.3616 19.6732C19.9835 19.8659 19.5906 19.9372 19.1958 19.9695C18.8217 20 18.3677 20 17.8416 20H14C13.4477 20 13 19.5523 13 19C13 18.4477 13.4477 18 14 18H17.8031C18.3786 18 18.75 17.9992 19.0328 17.9761C19.3038 17.9539 19.4043 17.9163 19.4536 17.8912C19.6416 17.7955 19.7952 17.6418 19.8912 17.4534C19.9164 17.4041 19.954 17.3036 19.9761 17.0327C19.9992 16.75 20 16.3786 20 15.8031V8.19691C20 7.62146 19.9992 7.2498 19.9761 6.96686C19.9539 6.69554 19.9163 6.59501 19.8912 6.54579C19.7959 6.3587 19.6426 6.20542 19.4534 6.109C19.4039 6.08375 19.3032 6.04611 19.0319 6.02393C18.7488 6.00078 18.3768 6 17.8002 6H6.2002C5.62365 6 5.25126 6.00078 4.9678 6.02393C4.69595 6.04614 4.59517 6.08383 4.54579 6.109C4.35763 6.20487 4.20487 6.35763 4.109 6.54579C4.08383 6.59517 4.04614 6.69595 4.02393 6.9678C4.00078 7.25126 4 7.62365 4 8.2002V8.2502C4 8.80248 3.55229 9.2502 3 9.2502C2.44772 9.2502 2 8.80248 2 8.2502L2 8.16168C1.99998 7.63451 1.99997 7.17965 2.03057 6.80499C2.06286 6.40962 2.13416 6.01625 2.32698 5.63781C2.6146 5.07332 3.07332 4.6146 3.63781 4.32698C4.01625 4.13416 4.40962 4.06286 4.80499 4.03057C5.17965 3.99997 5.63451 3.99998 6.16168 4ZM2 11C2 10.4477 2.44772 10 3 10C7.97056 10 12 14.0294 12 19C12 19.5523 11.5523 20 11 20C10.4477 20 10 19.5523 10 19C10 15.134 6.866 12 3 12C2.44772 12 2 11.5523 2 11ZM2 14C2 13.4477 2.44772 13 3 13C6.31371 13 9 15.6863 9 19C9 19.5523 8.55229 20 8 20C7.44772 20 7 19.5523 7 19C7 16.7909 5.20914 15 3 15C2.44772 15 2 14.5523 2 14ZM2 17C2 16.4477 2.44772 16 3 16C4.65686 16 6 17.3431 6 19C6 19.5523 5.55229 20 5 20C4.44772 20 4 19.5523 4 19C4 18.4477 3.55229 18 3 18C2.44772 18 2 17.5523 2 17Z" fill="#383B41"/>
</svg>
