<svg width="24" height="24" viewBox="0 0 24 24" fill="none" xmlns="http://www.w3.org/2000/svg">
<path fill-rule="evenodd" clip-rule="evenodd" d="M9.16168 3H17.8388C18.3659 2.99998 18.8205 2.99997 19.1949 3.03058C19.5902 3.06289 19.9831 3.13424 20.3614 3.32698C20.9248 3.61405 21.3851 4.07224 21.6732 4.63781C21.8659 5.016 21.9372 5.40906 21.9695 5.80397C22 6.17815 22 6.6323 22 7.15839V13.8416C22 14.3677 22 14.8217 21.9695 15.1957C21.9372 15.5905 21.8659 15.9833 21.6732 16.3614C21.3857 16.9257 20.9263 17.3855 20.3616 17.6732C19.9835 17.8659 19.5906 17.9372 19.1958 17.9695C18.8217 18 18.3677 18 17.8416 18H10.9824C10.9789 18.0675 10.9746 18.1327 10.9695 18.1957C10.9372 18.5905 10.8659 18.9833 10.6732 19.3614C10.3856 19.9259 9.92588 20.3856 9.36139 20.6732C8.98331 20.8659 8.59055 20.9372 8.19568 20.9695C7.82166 21 7.36767 21 6.8416 21H6.15839C5.6323 21 5.17815 21 4.80397 20.9695C4.40906 20.9372 4.016 20.8659 3.63781 20.6732C3.07224 20.3851 2.61405 19.9248 2.32698 19.3614C2.13424 18.9831 2.06289 18.5902 2.03058 18.1949C1.99997 17.8205 1.99998 17.3659 2 16.8388V11.1617C1.99998 10.6345 1.99997 10.1796 2.03057 9.80499C2.06286 9.40962 2.13416 9.01625 2.32698 8.63781C2.6146 8.07332 3.07332 7.6146 3.63781 7.32698C4.01625 7.13416 4.40962 7.06286 4.80499 7.03057C4.86776 7.02544 4.93278 7.02118 5.00002 7.01762C5.00024 6.55126 5.00279 6.14508 5.03057 5.80499C5.06286 5.40962 5.13416 5.01625 5.32698 4.63781C5.6146 4.07332 6.07332 3.6146 6.63781 3.32698C7.01625 3.13416 7.40962 3.06286 7.80499 3.03057C8.17965 2.99997 8.63451 2.99998 9.16168 3ZM7.00007 7.00003C7.45911 7.00031 7.85922 7.00313 8.19488 7.03058C8.59018 7.06289 8.98312 7.13424 9.36139 7.32698C9.92479 7.61405 10.3851 8.07224 10.6732 8.63781C10.8659 9.016 10.9372 9.40906 10.9695 9.80397C11 10.1782 11 10.6323 11 11.1584V16H17.8031C18.3786 16 18.75 15.9992 19.0328 15.9761C19.3038 15.9539 19.4043 15.9163 19.4536 15.8912C19.6416 15.7955 19.7952 15.6418 19.8912 15.4534C19.9164 15.4041 19.954 15.3036 19.9761 15.0327C19.9992 14.75 20 14.3786 20 13.8031V7.19691C20 6.62146 19.9992 6.2498 19.9761 5.96686C19.9539 5.69554 19.9163 5.59501 19.8912 5.54579C19.7959 5.35871 19.6427 5.20542 19.4534 5.109C19.4039 5.08375 19.3032 5.04611 19.0319 5.02393C18.7488 5.00078 18.3768 5 17.8002 5H9.2002C8.62365 5 8.25126 5.00078 7.9678 5.02393C7.69595 5.04614 7.59517 5.08383 7.54579 5.109C7.35763 5.20487 7.20487 5.35763 7.109 5.54579C7.08383 5.59517 7.04614 5.69595 7.02393 5.9678C7.00358 6.21702 7.00052 6.535 7.00007 7.00003ZM4.9678 9.02393C4.69595 9.04614 4.59517 9.08383 4.54579 9.109C4.35763 9.20487 4.20487 9.35763 4.109 9.54579C4.08383 9.59517 4.04614 9.69595 4.02393 9.9678C4.00078 10.2513 4 10.6237 4 11.2002V16.8002C4 17.3768 4.00078 17.7488 4.02393 18.0319C4.04611 18.3032 4.08375 18.4039 4.109 18.4534C4.20542 18.6427 4.35871 18.7959 4.54579 18.8912C4.59501 18.9163 4.69554 18.9539 4.96686 18.9761C5.2498 18.9992 5.62146 19 6.19691 19H6.80309C7.37856 19 7.74998 18.9992 8.03269 18.9761C8.30365 18.954 8.40408 18.9164 8.45341 18.8912C8.64157 18.7953 8.79535 18.6416 8.89122 18.4534C8.91636 18.4041 8.95395 18.3036 8.97611 18.0327C8.99922 17.75 9 17.3786 9 16.8031V11.1969C9 10.6215 8.99922 10.2498 8.9761 9.96686C8.95393 9.69554 8.9163 9.595 8.89122 9.54579C8.7959 9.35871 8.64265 9.20542 8.45341 9.109C8.40385 9.08375 8.30324 9.04611 8.03192 9.02393C7.74881 9.00078 7.37677 9 6.8002 9H6.2002C5.62365 9 5.25126 9.00078 4.9678 9.02393Z" fill="#383B41"/>
</svg>
