<svg width="24" height="24" viewBox="0 0 24 24" fill="none" xmlns="http://www.w3.org/2000/svg">
<g clip-path="url(#clip0_269_11270)">
<path fill-rule="evenodd" clip-rule="evenodd" d="M4.29308 0.292893C4.68361 -0.0976311 5.31677 -0.0976311 5.7073 0.292893L19.7073 14.2929C20.0978 14.6834 20.0978 15.3166 19.7073 15.7071C19.3168 16.0976 18.6836 16.0976 18.2931 15.7071L15.5003 12.9143L15.176 13.2385C15.173 13.2416 15.1699 13.2446 15.1667 13.2477C15.0797 13.3347 15.0357 13.3792 15.0048 13.413C15.0041 13.4138 15.0034 13.4145 15.0028 13.4152C15.0027 13.4164 15.0027 13.4175 15.0026 13.4187C15.0004 13.4662 15.0002 13.5316 15.0002 13.6626V18.011C15.0002 18.0355 15.0003 18.0607 15.0004 18.0865C15.0014 18.3627 15.0027 18.71 14.8908 19.0344C14.7932 19.3175 14.6339 19.5716 14.4285 19.7813C14.188 20.0268 13.8776 20.1807 13.6285 20.3041C13.6061 20.3153 13.5842 20.3261 13.5628 20.3368L12.7284 20.754C12.3757 20.9304 12.0522 21.0922 11.7776 21.1994C11.4954 21.3095 11.1236 21.4219 10.7075 21.3604C10.1632 21.28 9.67653 20.9791 9.36128 20.5284C9.12009 20.1835 9.0545 19.8004 9.02692 19.4989C9.00013 19.2061 9.00016 18.8453 9.00019 18.4521L9.00019 13.6551C9.00019 13.5266 8.99995 13.4629 8.99783 13.4166C8.99781 13.4162 8.99779 13.4159 8.99777 13.4155C8.9969 13.4145 8.99597 13.4135 8.995 13.4124C8.96312 13.3775 8.91723 13.3312 8.82458 13.2386L3.76183 8.17586C3.75013 8.16415 3.73806 8.15215 3.7257 8.13985C3.59115 8.00602 3.42145 7.83723 3.29501 7.6309C3.18577 7.45263 3.10463 7.25771 3.05545 7.05287C2.99895 6.81753 2.99959 6.5783 3.0001 6.3884C3.00015 6.37095 3.00019 6.35393 3.00019 6.33736V5.6001C3.00019 5.58946 3.00019 5.57883 3.00019 5.56822C3.00016 5.31582 3.00013 5.06999 3.01713 4.86179C3.0358 4.63322 3.07985 4.36339 3.21818 4.09191C3.40992 3.71558 3.71578 3.40973 4.0921 3.21799C4.36344 3.07973 4.63304 3.03564 4.86168 3.01695C5.06978 2.99994 5.31552 2.99997 5.56788 3C5.57391 3 5.57994 3 5.58598 3L4.29308 1.70711C3.90256 1.31658 3.90256 0.683417 4.29308 0.292893ZM7.5826 4.99662C7.5553 4.99886 7.52768 5 7.4998 5H5.5998C5.30326 5 5.1411 5.00078 5.02461 5.0103C5.02005 5.01067 5.01573 5.01105 5.01164 5.01143C5.01126 5.01557 5.01088 5.01996 5.0105 5.0246C5.00097 5.14126 5.00019 5.30358 5.00019 5.6001V6.33736C5.00019 6.46835 5.00043 6.53377 5.0026 6.58129C5.00266 6.58247 5.00271 6.5836 5.00276 6.5847C5.00357 6.58559 5.00442 6.58652 5.00531 6.5875C5.03739 6.62265 5.08348 6.66908 5.17605 6.76164L10.2388 11.8244C10.2505 11.8361 10.2626 11.8481 10.2749 11.8604C10.4096 11.9944 10.5787 12.1625 10.7051 12.3689C10.8131 12.545 10.8955 12.74 10.9452 12.9472C11.0014 13.1814 11.0008 13.419 11.0003 13.6052C11.0002 13.6223 11.0002 13.639 11.0002 13.6552V18.411C11.0002 18.8591 11.0012 19.1264 11.0186 19.3166C11.0196 19.3276 11.0206 19.3377 11.0216 19.3472C11.0306 19.3439 11.0402 19.3402 11.0504 19.3362C11.2283 19.2668 11.4678 19.1483 11.8684 18.948L12.6684 18.548C12.8392 18.4626 12.927 18.418 12.9884 18.3823C12.9907 18.381 12.9929 18.3797 12.9949 18.3785C12.995 18.3766 12.9952 18.3747 12.9953 18.3726C12.9997 18.3012 13.0002 18.2025 13.0002 18.011V13.6626C13.0002 13.646 13.0001 13.629 13.0001 13.6116C12.9996 13.4216 12.999 13.1825 13.0555 12.9472C13.1045 12.7429 13.1855 12.5477 13.295 12.369C13.4212 12.163 13.5904 11.9947 13.7241 11.8617C13.7364 11.8495 13.7484 11.8376 13.76 11.826C13.7631 11.8229 13.7662 11.8199 13.7693 11.8168L14.086 11.5001L7.5826 4.99662ZM18.976 5.01031C18.8592 5.00078 18.6967 5 18.4002 5H13.0002C12.4479 5 12.0002 4.55228 12.0002 4C12.0002 3.44772 12.4479 3 13.0002 3L18.432 3C18.6845 2.99997 18.9304 2.99994 19.1387 3.01694C19.3672 3.03558 19.6373 3.07958 19.909 3.21799C20.2875 3.41087 20.5912 3.71782 20.7818 4.09191C20.9199 4.36299 20.9642 4.63247 20.983 4.86122C21.0002 5.07069 21.0002 5.31793 21.0002 5.57198V6.3448C21.0002 6.36095 21.0002 6.3776 21.0003 6.39468C21.0008 6.58088 21.0014 6.81866 20.9452 7.05286C20.8955 7.26015 20.8131 7.45482 20.7052 7.6309C20.5786 7.83757 20.4093 8.00601 20.2739 8.14075C20.2619 8.15272 20.2501 8.16442 20.2387 8.17586L18.7073 9.70723C18.3168 10.0978 17.6836 10.0978 17.2931 9.70723C16.9026 9.3167 16.9026 8.68354 17.2931 8.29301L18.8245 6.76164C18.9168 6.66928 18.9628 6.62286 18.9947 6.58794C18.9958 6.58674 18.9968 6.58559 18.9978 6.58451C18.9978 6.58415 18.9978 6.58378 18.9978 6.5834C19 6.53709 19.0002 6.47331 19.0002 6.3448V5.6001C19.0002 5.30394 18.9993 5.14159 18.9897 5.02517C18.9893 5.0203 18.9889 5.01572 18.9885 5.01139C18.9846 5.01103 18.9804 5.01067 18.976 5.01031Z" fill="#383B41"/>
</g>
<defs>
<clipPath id="clip0_269_11270">
<rect width="24" height="24" fill="white"/>
</clipPath>
</defs>
</svg>
