<svg width="24" height="24" viewBox="0 0 24 24" fill="none" xmlns="http://www.w3.org/2000/svg">
<path fill-rule="evenodd" clip-rule="evenodd" d="M4.89025 6.67006C4.37574 7.2817 4 8.19991 4 9.49987C4 12.0331 5.93836 14.5239 8.16437 16.5026C9.24531 17.4634 10.3309 18.2479 11.1485 18.793C11.4863 19.0183 11.7768 19.2015 12 19.3383C12.2232 19.2015 12.5137 19.0183 12.8515 18.793C13.6691 18.2479 14.7547 17.4634 15.8356 16.5026C18.0616 14.5239 20 12.0331 20 9.49987C20 8.19991 19.6243 7.2817 19.1098 6.67006C18.5924 6.05501 17.8836 5.68829 17.1074 5.57643C15.5454 5.35135 13.7381 6.16605 12.92 8.08623C12.7629 8.45496 12.4008 8.69428 12 8.69428C11.5992 8.69428 11.2371 8.45496 11.08 8.08623C10.2619 6.16605 8.4546 5.35135 6.89263 5.57643C6.11636 5.68829 5.40763 6.05501 4.89025 6.67006ZM12 20.5001C11.5143 21.3742 11.5141 21.3741 11.5138 21.3739L11.511 21.3723L11.5043 21.3686L11.4814 21.3557C11.4619 21.3447 11.4342 21.3288 11.3986 21.3083C11.3276 21.2673 11.2255 21.2074 11.0968 21.1298C10.8394 20.9746 10.475 20.7477 10.039 20.4571C9.1691 19.8771 8.00469 19.0366 6.83563 17.9974C4.56164 15.976 2 12.9667 2 9.49987C2 7.79982 2.49926 6.40552 3.35975 5.3826C4.21737 4.36309 5.38364 3.77321 6.60737 3.59687C8.53723 3.31878 10.6266 4.06441 12 5.76329C13.3734 4.06441 15.4628 3.31878 17.3926 3.59687C18.6164 3.77321 19.7826 4.36309 20.6402 5.3826C21.5007 6.40552 22 7.79982 22 9.49987C22 12.9667 19.4384 15.976 17.1644 17.9974C15.9953 19.0366 14.8309 19.8771 13.961 20.4571C13.525 20.7477 13.1606 20.9746 12.9032 21.1298C12.7745 21.2074 12.6724 21.2673 12.6014 21.3083C12.5658 21.3288 12.5381 21.3447 12.5186 21.3557L12.4957 21.3686L12.489 21.3723L12.4869 21.3735C12.4867 21.3737 12.4857 21.3742 12 20.5001ZM12 20.5001L12.4857 21.3742C12.1836 21.542 11.8158 21.5417 11.5138 21.3739L12 20.5001Z" fill="#383B41"/>
</svg>
