<svg width="24" height="24" viewBox="0 0 24 24" fill="none" xmlns="http://www.w3.org/2000/svg">
<path fill-rule="evenodd" clip-rule="evenodd" d="M12.2839 4.69877C12.0988 4.64403 11.9012 4.64403 11.7161 4.69877C11.665 4.71389 11.5754 4.75121 11.3845 4.89394C11.1836 5.04418 10.9373 5.25877 10.553 5.59501L5.7514 9.7964C5.31135 10.1814 5.22878 10.2644 5.1732 10.3463C5.10829 10.4419 5.06097 10.5462 5.03261 10.6547C5.00771 10.75 5.00012 10.8655 5.00012 11.4522V17.0002C5.00012 17.4798 5.00066 17.7894 5.01683 18.0263C5.03238 18.2542 5.05899 18.341 5.07624 18.3827C5.17801 18.6284 5.37282 18.8231 5.61718 18.9243C5.65879 18.9416 5.74563 18.9682 5.97362 18.9838C6.2106 18.9999 6.52024 19.0005 6.99986 19.0005C7.47947 19.0005 7.78926 18.9999 8.02639 18.9838C8.25462 18.9682 8.34152 18.9415 8.38306 18.9243C8.62741 18.8231 8.82212 18.6285 8.9239 18.3828C8.94116 18.3411 8.96779 18.2542 8.98337 18.0262C8.99955 17.7893 9.00012 17.4796 9.00012 17.0001V16.0001C9.00012 14.3432 10.3433 13.0001 12.0001 13.0001C13.657 13.0001 15.0001 14.3432 15.0001 16.0001V17.0001C15.0001 17.4797 15.0007 17.7893 15.0168 18.0263C15.0324 18.2543 15.059 18.3411 15.0762 18.3828C15.178 18.6284 15.3727 18.8231 15.6172 18.9243C15.6588 18.9416 15.7456 18.9682 15.9736 18.9838C16.2106 18.9999 16.5202 19.0005 16.9999 19.0005C17.4795 19.0005 17.7893 18.9999 18.0264 18.9838C18.2546 18.9682 18.3415 18.9415 18.3831 18.9243C18.6273 18.8232 18.8221 18.6285 18.9239 18.3827C18.9412 18.341 18.9678 18.2541 18.9834 18.0262C18.9996 17.7893 19.0001 17.4797 19.0001 17.0002V11.4522C19.0001 10.867 18.9922 10.7504 18.9672 10.6547C18.9383 10.5443 18.8911 10.4403 18.8273 10.3463C18.7718 10.2645 18.6892 10.1816 18.249 9.7964L13.449 5.5964C13.0642 5.25971 12.8175 5.04478 12.6163 4.89434C12.4251 4.75139 12.3352 4.71395 12.2839 4.69877ZM11.149 2.78087C11.7042 2.61666 12.2958 2.61666 12.8511 2.78087C13.2199 2.88994 13.5268 3.07786 13.8139 3.29252C14.0845 3.49482 14.3895 3.76173 14.7405 4.06893L19.566 8.29125C19.5874 8.30998 19.6087 8.32853 19.6298 8.34695C19.9673 8.64179 20.2626 8.89976 20.4821 9.22299C20.6741 9.50587 20.8159 9.81887 20.9022 10.1491C21.0009 10.5268 21.0006 10.919 21.0002 11.3664C21.0001 11.3948 21.0001 11.4234 21.0001 11.4522V17.0307C21.0001 17.47 21.0001 17.849 20.9787 18.1626C20.9562 18.4924 20.9066 18.8222 20.7717 19.148C20.4675 19.8824 19.8843 20.4673 19.1484 20.7721C18.8224 20.9071 18.4923 20.9566 18.1625 20.9791C17.8491 21.0005 17.4705 21.0005 17.0317 21.0005H16.9679C16.5292 21.0005 16.1507 21.0005 15.8375 20.9791C15.5076 20.9566 15.1777 20.9071 14.8518 20.7721C14.1161 20.4674 13.5327 19.8826 13.2285 19.1481C13.0935 18.8222 13.044 18.4923 13.0215 18.1625C13.0001 17.8492 13.0001 17.4707 13.0001 17.0321V16.0001C13.0001 15.4478 12.5524 15.0001 12.0001 15.0001C11.4478 15.0001 11.0001 15.4478 11.0001 16.0001L11.0001 17.0306C11.0001 17.4699 11.0001 17.8489 10.9787 18.1625C10.9562 18.4924 10.9066 18.8223 10.7717 19.1481C10.4675 19.8825 9.88419 20.4673 9.14843 20.7721C8.82243 20.9071 8.49233 20.9566 8.16247 20.9791C7.84909 21.0005 7.47046 21.0005 7.03175 21.0005H6.96788C6.52922 21.0005 6.15074 21.0005 5.83748 20.9791C5.50765 20.9566 5.17774 20.9071 4.85181 20.7721C4.11606 20.4673 3.53269 19.8825 3.22848 19.148C3.09349 18.8221 3.04398 18.4923 3.02147 18.1625C3.0001 17.8492 3.00011 17.4708 3.00012 17.0322L3.00012 11.4522C3.00012 11.4215 3.00009 11.3911 3.00006 11.3609C2.99961 10.917 2.99922 10.5255 3.09758 10.1491C3.18437 9.81696 3.32754 9.50423 3.51845 9.22299C3.73795 8.89964 4.03328 8.64166 4.37111 8.34656C4.39204 8.32827 4.41314 8.30984 4.43439 8.29125L9.23598 4.08986L9.26265 4.06653C9.61261 3.76029 9.91686 3.49405 10.1868 3.2922C10.4736 3.07774 10.7803 2.8899 11.149 2.78087Z" fill="#383B41"/>
</svg>
