<svg width="24" height="24" viewBox="0 0 24 24" fill="none" xmlns="http://www.w3.org/2000/svg">
<path fill-rule="evenodd" clip-rule="evenodd" d="M6.52595 3.14935C6.82077 3.33156 7.00022 3.65342 7.00022 4V10C7.00022 10.5523 6.5525 11 6.00022 11C5.44793 11 5.00022 10.5523 5.00022 10V5.61804L4.44743 5.89443C3.95345 6.14142 3.35278 5.94119 3.10579 5.44721C2.8588 4.95324 3.05903 4.35256 3.55301 4.10557L5.55301 3.10557C5.86299 2.95058 6.23113 2.96714 6.52595 3.14935ZM9.00022 7C9.00022 6.44772 9.44793 6 10.0002 6H20.0002C20.5525 6 21.0002 6.44772 21.0002 7C21.0002 7.55229 20.5525 8 20.0002 8H10.0002C9.44793 8 9.00022 7.55229 9.00022 7ZM9.00022 12C9.00022 11.4477 9.44793 11 10.0002 11H20.0002C20.5525 11 21.0002 11.4477 21.0002 12C21.0002 12.5523 20.5525 13 20.0002 13H10.0002C9.44793 13 9.00022 12.5523 9.00022 12ZM5.50022 15C5.22408 15 5.00022 15.2239 5.00022 15.5V15.6853C5.00022 16.2376 4.5525 16.6853 4.00022 16.6853C3.44793 16.6853 3.00022 16.2376 3.00022 15.6853V15.5C3.00022 14.1193 4.11951 13 5.50022 13H5.54076C6.8989 13 8.00043 14.101 8.00043 15.4595C8.00043 16.027 7.81606 16.5791 7.47589 17.0326L6.67589 16.4326L7.47589 17.0326L6.00031 19.0001L7.00016 19C7.55244 19 8.00018 19.4477 8.00022 19.9999C8.00025 20.5522 7.55257 21 7.00028 21L4.00028 21.0002C3.6215 21.0002 3.27521 20.7862 3.10581 20.4474C2.9364 20.1086 2.97295 19.7032 3.20022 19.4002L5.87589 15.8326C5.95677 15.7248 6.00043 15.5937 6.00043 15.4595C6.00043 15.2059 5.79469 15 5.54076 15H5.50022ZM9.00022 17C9.00022 16.4477 9.44793 16 10.0002 16H20.0002C20.5525 16 21.0002 16.4477 21.0002 17C21.0002 17.5523 20.5525 18 20.0002 18H10.0002C9.44793 18 9.00022 17.5523 9.00022 17Z" fill="#383B41"/>
</svg>
