<svg width="24" height="24" viewBox="0 0 24 24" fill="none" xmlns="http://www.w3.org/2000/svg">
<path fill-rule="evenodd" clip-rule="evenodd" d="M7.78646 4.35298C7.79865 4.35949 7.81087 4.36601 7.82313 4.37254L17.8055 9.69647C17.8126 9.70006 17.8197 9.70373 17.8268 9.70749L17.865 9.72786C18.2607 9.93887 18.6166 10.1287 18.8872 10.3065C19.158 10.4845 19.4988 10.7458 19.6906 11.1614C19.9359 11.6931 19.9359 12.3062 19.6906 12.838C19.4987 13.2537 19.1577 13.5153 18.8864 13.6937C18.6144 13.8725 18.2565 14.0634 17.8582 14.2758L7.78979 19.6456C7.43191 19.8365 7.10511 20.0108 6.82773 20.1275C6.54434 20.2467 6.16837 20.3713 5.74416 20.3166C5.19197 20.2454 4.69368 19.9474 4.37019 19.4925C4.12205 19.1436 4.05537 18.7528 4.02732 18.4469C3.99994 18.1483 3.99997 17.7792 4 17.3753L4 6.66701C4 6.6531 4 6.63924 4 6.62541C3.99997 6.22146 3.99994 5.85224 4.02731 5.55349C4.05533 5.24766 4.12193 4.85639 4.37019 4.50734C4.69364 4.05256 5.1919 3.75446 5.74416 3.68323C6.1689 3.62844 6.5454 3.75378 6.82832 3.87292C7.1047 3.98931 7.43031 4.163 7.78646 4.35298ZM6.02219 5.70385C6.0211 5.71377 6.02002 5.72446 6.01897 5.73595C6.001 5.93206 6 6.20763 6 6.66701V17.3337C6 17.7931 6.00101 18.0684 6.01896 18.2642C6.02001 18.2757 6.02109 18.2864 6.02217 18.2963C6.03154 18.2925 6.0416 18.2884 6.05237 18.2839C6.23343 18.2077 6.4768 18.0792 6.88196 17.8631L16.882 12.5298C17.3291 12.2913 17.6027 12.1441 17.7877 12.0225C17.7999 12.0145 17.8112 12.0069 17.8215 11.9998C17.8115 11.993 17.8006 11.9857 17.7888 11.9779C17.6068 11.8583 17.3389 11.714 16.9032 11.4816C16.8961 11.478 16.889 11.4743 16.882 11.4706L6.88196 6.13725C6.47691 5.92122 6.23346 5.79252 6.0521 5.71615C6.04144 5.71166 6.03148 5.70757 6.02219 5.70385Z" fill="#383B41"/>
</svg>
