<svg width="24" height="24" viewBox="0 0 24 24" fill="none" xmlns="http://www.w3.org/2000/svg">
<path fill-rule="evenodd" clip-rule="evenodd" d="M20.4544 16.1644C20.9213 15.9174 21.118 15.3451 20.8932 14.8603C20.6609 14.3592 20.0664 14.1413 19.5654 14.3736L19.5635 14.3745C19.5417 14.3846 19.5203 14.3955 19.4994 14.4071C19.4962 14.4088 19.4931 14.4106 19.49 14.4123C19.4442 14.4377 19.4033 14.4603 19.3625 14.4846M20.4544 16.1644C20.4066 16.1909 20.3961 16.1969 20.3868 16.2024C20.2496 16.2842 20.1338 16.398 20.0493 16.5341C19.7581 17.0034 19.1416 17.1477 18.6723 16.8564C18.2031 16.5652 18.0588 15.9487 18.35 15.4794C18.603 15.0719 18.9501 14.7306 19.3625 14.4846" fill="#383B41"/>
<path fill-rule="evenodd" clip-rule="evenodd" d="M12.0004 8.99997C10.3436 8.99997 9.00043 10.3431 9.00043 12C9.00043 13.6568 10.3436 15 12.0004 15C13.6573 15 15.0004 13.6568 15.0004 12C15.0004 10.3431 13.6573 8.99997 12.0004 8.99997ZM7.00043 12C7.00043 9.23855 9.23901 6.99997 12.0004 6.99997C14.7619 6.99997 17.0004 9.23855 17.0004 12C17.0004 14.7614 14.7619 17 12.0004 17C9.23901 17 7.00043 14.7614 7.00043 12ZM11.9885 19.2446H12.0105C12.0651 19.2446 12.1131 19.2446 12.1618 19.2461C12.6396 19.2615 13.1079 19.3908 13.5264 19.6241C13.5655 19.6459 13.6032 19.6685 13.6392 19.6902L14.0226 19.9203C14.6708 20.3095 14.8054 20.3761 14.9255 20.403C15.0657 20.4345 15.2099 20.4356 15.3487 20.4066C15.4686 20.3815 15.6041 20.3169 16.2567 19.9381C16.7344 19.6609 17.3463 19.8234 17.6236 20.301C17.9008 20.7787 17.7383 21.3907 17.2606 21.6679C17.2262 21.6879 17.192 21.7078 17.1582 21.7275C16.668 22.0128 16.2356 22.2645 15.7576 22.3643C15.3375 22.4521 14.9045 22.4481 14.4876 22.3545C14.0105 22.2475 13.5819 21.9894 13.0938 21.6956C13.0606 21.6756 13.027 21.6554 12.9932 21.6351L12.617 21.4092C12.569 21.3804 12.5598 21.375 12.5526 21.371C12.4137 21.2936 12.2575 21.2503 12.0975 21.2451C12.0851 21.2447 12.0711 21.2446 11.9995 21.2446C11.9281 21.2446 11.914 21.2447 11.9016 21.2451C11.9016 21.2451 11.9016 21.2451 11.9016 21.2451C11.7429 21.2502 11.5881 21.293 11.4486 21.3705C11.437 21.377 11.4223 21.3855 11.3641 21.4204L11.0102 21.6323C10.9761 21.6527 10.9424 21.673 10.9088 21.6931C10.4235 21.9846 9.99611 22.2412 9.52123 22.3478C9.10467 22.4413 8.6734 22.4446 8.25612 22.3582C7.7153 22.2463 7.36761 21.7171 7.47954 21.1763C7.59147 20.6355 8.12064 20.2878 8.66146 20.3997C8.80108 20.4286 8.94482 20.4274 9.08315 20.3964C9.20263 20.3696 9.33686 20.3031 9.9828 19.9164L10.3366 19.7045C10.3903 19.6724 10.4324 19.6472 10.4768 19.6226C10.8939 19.3907 11.3598 19.2615 11.8375 19.2461C11.886 19.2446 11.934 19.2446 11.9885 19.2446Z" fill="#383B41"/>
<path fill-rule="evenodd" clip-rule="evenodd" d="M6.35317 20.3691C6.59202 19.8711 7.18932 19.661 7.68729 19.8999L8.8912 20.4773C9.38917 20.7162 9.59923 21.3135 9.36039 21.8114C9.12154 22.3094 8.52424 22.5195 8.02627 22.2806L6.82236 21.7032C6.32439 21.4644 6.11433 20.867 6.35317 20.3691Z" fill="#383B41"/>
<path fill-rule="evenodd" clip-rule="evenodd" d="M18.8252 16.7121C19.3774 16.7028 19.8326 17.1429 19.8419 17.6951C19.8425 17.7342 19.8432 17.7731 19.8439 17.8116C19.854 18.3693 19.863 18.8645 19.7191 19.3269C19.5924 19.734 19.3804 20.1092 19.0974 20.4278C18.7748 20.7908 18.3447 21.0398 17.8575 21.3217C17.8239 21.3411 17.79 21.3608 17.7558 21.3806C17.2782 21.6578 16.6662 21.4953 16.389 21.0177C16.1117 20.54 16.2742 19.9281 16.7519 19.6508C17.3994 19.275 17.5215 19.1904 17.6022 19.0995C17.6967 18.9931 17.7673 18.8682 17.8095 18.7326C17.8452 18.6178 17.8546 18.4709 17.8421 17.7287C17.8328 17.1765 18.273 16.7213 18.8252 16.7121Z" fill="#383B41"/>
<path fill-rule="evenodd" clip-rule="evenodd" d="M4.37134 15.2576C4.85065 14.9832 5.46163 15.1494 5.73599 15.6287C5.7406 15.6367 5.74536 15.645 5.75022 15.6535C5.77318 15.6934 5.79828 15.7371 5.81998 15.7782C6.04072 16.1961 6.15816 16.659 6.16616 17.1284C6.16707 17.1818 6.1662 17.2335 6.16513 17.2967L6.1582 17.7071C6.14549 18.4602 6.15557 18.6117 6.1923 18.7293C6.23479 18.8654 6.30572 18.9906 6.40058 19.0969C6.48233 19.1885 6.60593 19.2736 7.26017 19.6506C7.73869 19.9264 7.90307 20.5378 7.62732 21.0163C7.35157 21.4949 6.74012 21.6592 6.2616 21.3835C6.22709 21.3636 6.19285 21.3439 6.1589 21.3244C5.66651 21.0415 5.23319 20.7926 4.9083 20.4285C4.62359 20.1094 4.41057 19.7334 4.28316 19.3253C4.13723 18.8578 4.14624 18.3569 4.15653 17.7846C4.15719 17.7478 4.15785 17.7107 4.15849 17.6733L4.16537 17.2658C4.1666 17.1924 4.16668 17.1762 4.16645 17.1625C4.16374 17.0039 4.12411 16.8497 4.05152 16.7123M4.37134 15.2576C3.89202 15.5319 3.72587 16.1429 4.00022 16.6222ZM4.00022 16.6222C4.01211 16.643 4.02094 16.6584 4.02762 16.67ZM4.02762 16.67C4.04459 16.6996 4.04763 16.7049 4.05152 16.7123Z" fill="#383B41"/>
<path fill-rule="evenodd" clip-rule="evenodd" d="M3.41797 14.6415C3.80613 14.2487 4.43928 14.2448 4.83216 14.633L5.50117 15.294C5.89405 15.6821 5.89788 16.3153 5.50972 16.7082C5.12156 17.101 4.48841 17.1049 4.09553 16.7167L3.42652 16.0557C3.03364 15.6676 3.02981 15.0344 3.41797 14.6415Z" fill="#383B41"/>
<path fill-rule="evenodd" clip-rule="evenodd" d="M3.13436 14.7898C3.40285 14.3072 4.01176 14.1336 4.49439 14.4021C4.50215 14.4064 4.51002 14.4108 4.51798 14.4152C4.56005 14.4385 4.60431 14.4631 4.64518 14.4877C5.11831 14.7726 5.2709 15.3871 4.986 15.8602C4.7011 16.3333 4.08659 16.4859 3.61346 16.201C3.60523 16.1961 3.59844 16.1923 3.55771 16.1697C3.54795 16.1642 3.53624 16.1577 3.5221 16.1498C3.03947 15.8814 2.86587 15.2725 3.13436 14.7898Z" fill="#383B41"/>
<path fill-rule="evenodd" clip-rule="evenodd" d="M5.32948 7.14302C5.79873 7.43426 5.94303 8.05076 5.65179 8.52002C5.39886 8.92754 5.05199 9.26868 4.63953 9.51462C4.16517 9.79747 3.55134 9.64223 3.26849 9.16787C2.98563 8.69352 3.14088 8.07968 3.61524 7.79683C3.75239 7.71504 3.86797 7.60151 3.95248 7.46534C4.24373 6.99608 4.86023 6.85178 5.32948 7.14302Z" fill="#383B41"/>
<path fill-rule="evenodd" clip-rule="evenodd" d="M5.40241 6.88967C5.88913 7.15066 6.07213 7.7568 5.81114 8.24353C5.78852 8.28571 5.76484 8.3267 5.73798 8.37318C5.73619 8.37629 5.73438 8.37942 5.73255 8.38257C5.4563 8.8608 4.84468 9.02454 4.36645 8.74829C3.88822 8.47204 3.72448 7.86042 4.00073 7.38219C4.03593 7.32125 4.04279 7.30914 4.04855 7.2984C4.30954 6.81168 4.91568 6.62868 5.40241 6.88967Z" fill="#383B41"/>
<path fill-rule="evenodd" clip-rule="evenodd" d="M5.42051 5.88752C5.95498 6.02668 6.27543 6.57276 6.13628 7.10722L5.89785 8.02294C5.75869 8.5574 5.21261 8.87786 4.67815 8.7387C4.14368 8.59954 3.82322 8.05346 3.96238 7.519L4.20081 6.60329C4.33996 6.06882 4.88604 5.74836 5.42051 5.88752Z" fill="#383B41"/>
<path fill-rule="evenodd" clip-rule="evenodd" d="M4.98658 8.14358C5.26943 8.61793 5.11388 9.23177 4.63953 9.51462C4.60187 9.53708 4.56105 9.55981 4.52243 9.58114C4.51494 9.58528 4.50754 9.58937 4.50028 9.59339C4.01721 9.86109 3.4086 9.6865 3.14089 9.20343C2.87319 8.72037 3.04778 8.11175 3.53085 7.84405C3.54538 7.836 3.55713 7.82949 3.56673 7.82417C3.602 7.80464 3.60785 7.80123 3.61524 7.79683C4.08959 7.51397 4.70372 7.66922 4.98658 8.14358Z" fill="#383B41"/>
<path fill-rule="evenodd" clip-rule="evenodd" d="M18.6725 7.14579C19.1416 6.85437 19.7582 6.99844 20.0496 7.46758C20.1332 7.60215 20.2481 7.71521 20.3853 7.79738C20.859 8.08119 21.013 8.69534 20.7292 9.16913C20.4454 9.64291 19.8313 9.79692 19.3575 9.51311C18.9485 9.26811 18.603 8.92914 18.3507 8.5229C18.0593 8.05376 18.2033 7.43721 18.6725 7.14579Z" fill="#383B41"/>
<path fill-rule="evenodd" clip-rule="evenodd" d="M19.0026 8.16032C19.2759 7.68042 19.8865 7.51297 20.3664 7.7863L20.4787 7.85027C20.9586 8.1236 21.1261 8.73422 20.8528 9.21413C20.5794 9.69403 19.9688 9.86148 19.4889 9.58815L19.3766 9.52418C18.8967 9.25085 18.7292 8.64023 19.0026 8.16032Z" fill="#383B41"/>
<path fill-rule="evenodd" clip-rule="evenodd" d="M18.6309 7.01928C19.108 6.74106 19.7203 6.90226 19.9985 7.37934L20.0639 7.49148C20.3422 7.96856 20.181 8.58086 19.7039 8.85909C19.2268 9.13731 18.6145 8.97611 18.3363 8.49903L18.2709 8.38689C17.9926 7.90981 18.1538 7.29751 18.6309 7.01928Z" fill="#383B41"/>
<path fill-rule="evenodd" clip-rule="evenodd" d="M18.8513 5.72619C19.4035 5.73548 19.8436 6.19067 19.8343 6.74287C19.8333 6.80393 19.8333 6.82443 19.8336 6.84078C19.836 6.99974 19.8767 7.15667 19.9523 7.29784C20.213 7.7847 20.0298 8.39075 19.5429 8.65151C19.056 8.91226 18.45 8.72897 18.1892 8.24212C17.9635 7.82065 17.8412 7.35056 17.8338 6.87134C17.8331 6.82354 17.8334 6.77848 17.8346 6.70922C17.8439 6.15701 18.2991 5.71689 18.8513 5.72619Z" fill="#383B41"/>
<path fill-rule="evenodd" clip-rule="evenodd" d="M13.9125 3.01745C14.1808 3.50015 14.0071 4.10901 13.5244 4.37738C13.1063 4.60981 12.64 4.73806 12.1634 4.75336C11.6114 4.77107 11.1495 4.33795 11.1318 3.78595C11.1141 3.23395 11.5472 2.7721 12.0992 2.75439C12.2591 2.74926 12.414 2.7064 12.5525 2.62939C13.0352 2.36102 13.6441 2.53476 13.9125 3.01745Z" fill="#383B41"/>
<path fill-rule="evenodd" clip-rule="evenodd" d="M15.3397 3.59982C15.2012 3.57114 15.0576 3.57233 14.9182 3.60362C14.7991 3.63035 14.6658 3.69625 14.0217 4.08192C14.0142 4.08641 14.0067 4.09079 13.9991 4.09508L13.6645 4.29537C13.1907 4.57909 12.5766 4.42497 12.2929 3.95114C12.0091 3.4773 12.1633 2.86318 12.6371 2.57946L12.9909 2.3676C12.9984 2.36315 13.0058 2.35879 13.0134 2.35454C13.0409 2.33806 13.0682 2.32167 13.0953 2.30538C13.5793 2.01474 14.0057 1.75869 14.4801 1.65218C14.8957 1.5589 15.3268 1.55476 15.7451 1.64133C16.2217 1.73998 16.6532 1.98933 17.1434 2.27267C17.1773 2.29222 17.2114 2.31194 17.2458 2.33178L17.7396 2.61633C17.7732 2.63566 17.8064 2.65478 17.8394 2.67375C18.3336 2.95773 18.767 3.2068 19.0924 3.57146C19.377 3.89033 19.5902 4.2663 19.7177 4.6746C19.8627 5.13912 19.8537 5.63683 19.8435 6.2C19.8428 6.23889 19.8421 6.27809 19.8414 6.31762C19.8321 6.86982 19.3769 7.30994 18.8247 7.30065C18.2725 7.29136 17.8324 6.83617 17.8417 6.28397C17.8543 5.5348 17.8448 5.38669 17.8086 5.27066C17.7661 5.13479 17.6952 5.00954 17.6002 4.90306C17.5183 4.81128 17.3945 4.72574 16.7411 4.34921L16.2472 4.06465C15.5949 3.68871 15.4597 3.62465 15.3397 3.59982Z" fill="#383B41"/>
<path fill-rule="evenodd" clip-rule="evenodd" d="M9.07569 3.59631C8.93735 3.56527 8.79338 3.5642 8.6527 3.59358C8.53264 3.61866 8.39769 3.68304 7.74489 4.06192C7.7377 4.06609 7.73046 4.07017 7.72318 4.07416L7.26006 4.34295L7.24919 4.34943C6.60213 4.72497 6.48031 4.80948 6.3996 4.90032C6.30551 5.00623 6.23492 5.13123 6.19256 5.26732C6.15606 5.38461 6.1461 5.53519 6.15873 6.28587L6.16587 6.71053C6.17516 7.26274 5.73504 7.71792 5.18284 7.72722C4.63063 7.73651 4.17545 7.29639 4.16615 6.74418L4.15901 6.31952C4.15838 6.28201 4.15771 6.24482 4.15705 6.20792C4.14683 5.63799 4.13788 5.13904 4.2829 4.67303C4.40945 4.26639 4.62104 3.89096 4.90446 3.57196C5.22693 3.20901 5.65676 2.96026 6.14362 2.67852C6.17544 2.66011 6.20751 2.64155 6.23981 2.62281L6.25065 2.61635L6.73831 2.33332C6.74544 2.32918 6.75262 2.32513 6.75985 2.32117C6.7879 2.30488 6.81574 2.28867 6.84339 2.27257C7.3339 1.98705 7.76574 1.73568 8.24378 1.63583C8.66203 1.54847 9.09473 1.55086 9.51353 1.64483C9.99038 1.75181 10.4195 2.01018 10.9067 2.30354C10.9404 2.32379 10.9743 2.34422 11.0085 2.36477L11.3646 2.57854C11.3821 2.58901 11.3955 2.59706 11.4059 2.60333C11.4363 2.62162 11.4415 2.62477 11.4487 2.62877C11.5876 2.70619 11.7429 2.74924 11.9029 2.75439C11.9151 2.75478 11.9304 2.7549 12.0016 2.7549C12.5539 2.7549 13.0016 3.20261 13.0016 3.7549C13.0016 4.30718 12.5539 4.7549 12.0016 4.7549L11.9906 4.7549C11.9365 4.75491 11.8872 4.75491 11.8386 4.75335C11.3608 4.73798 10.8935 4.609 10.475 4.3757C10.4363 4.35417 10.3957 4.32969 10.3579 4.30695C10.3502 4.3023 10.3426 4.29772 10.3352 4.29326L9.97911 4.07949C9.33057 3.69014 9.19565 3.62323 9.07569 3.59631Z" fill="#383B41"/>
<path fill-rule="evenodd" clip-rule="evenodd" d="M4.52826 8.43435C4.79596 8.91742 4.62137 9.52604 4.13831 9.79374C3.47667 10.1604 3.35128 10.2438 3.26782 10.3344C3.17125 10.4392 3.09808 10.5637 3.05335 10.6997C3.01476 10.817 3.00246 10.9682 3.00417 11.7233L3.00545 12.2854C3.00715 13.0336 3.02052 13.1848 3.05933 13.3017C3.10462 13.4382 3.1775 13.5617 3.27256 13.6648C3.35557 13.7549 3.47934 13.8375 4.13583 14.2027C4.61846 14.4712 4.79205 15.0801 4.52356 15.5628C4.25507 16.0454 3.64617 16.219 3.16354 15.9505C3.12932 15.9315 3.09537 15.9126 3.0617 15.8939C2.56645 15.6192 2.13193 15.3782 1.8022 15.0206C1.51229 14.7062 1.29484 14.3345 1.16119 13.9319C1.00704 13.4675 1.00638 12.9683 1.00563 12.3945C1.00558 12.3599 1.00554 12.3251 1.00546 12.2899L1.00418 11.7278C1.00409 11.6901 1.00397 11.6528 1.00384 11.6157C1.0019 11.0424 1.00021 10.5406 1.15352 10.0746C1.28731 9.66796 1.5066 9.29424 1.79717 8.97897C2.12879 8.61916 2.56725 8.37688 3.06625 8.10116C3.10018 8.08241 3.1344 8.0635 3.16888 8.04439C3.65194 7.77669 4.26056 7.95128 4.52826 8.43435Z" fill="#383B41"/>
<path fill-rule="evenodd" clip-rule="evenodd" d="M19.4525 8.48148C19.6963 7.98593 20.2957 7.78185 20.7913 8.02566L20.793 8.02651C20.8081 8.03394 20.823 8.04174 20.8377 8.04991C20.8723 8.06916 20.9066 8.08821 20.9407 8.10709C21.4341 8.3808 21.8688 8.62187 22.1981 8.97899C22.4868 9.29218 22.7057 9.66355 22.8399 10.0677C22.9931 10.5292 22.9936 11.0265 22.9942 11.5922C22.9942 11.631 22.9942 11.6702 22.9943 11.7096L22.9956 12.2838C22.9957 12.3233 22.9959 12.3625 22.996 12.4014C22.998 12.9639 22.9998 13.4625 22.8476 13.9251C22.7138 14.3318 22.4947 14.7052 22.2041 15.0205C21.8727 15.3801 21.4339 15.6225 20.9355 15.8979C20.9012 15.9168 20.8667 15.9359 20.8318 15.9552C20.3488 16.2229 19.7401 16.0483 19.4724 15.5653C19.2047 15.0822 19.3793 14.4736 19.8624 14.2059C20.5244 13.839 20.6501 13.7555 20.7335 13.665C20.83 13.5602 20.903 13.4361 20.9477 13.3001C20.9856 13.185 20.9973 13.0369 20.9956 12.2884L20.9943 11.7142C20.9926 10.9626 20.9803 10.814 20.9417 10.6979C20.897 10.563 20.8239 10.4391 20.7277 10.3347C20.6455 10.2455 20.5225 10.1634 19.8766 9.80388C19.4042 9.55049 19.214 8.9663 19.4525 8.48148Z" fill="#383B41"/>
</svg>
