<svg width="24" height="24" viewBox="0 0 24 24" fill="none" xmlns="http://www.w3.org/2000/svg">
<path fill-rule="evenodd" clip-rule="evenodd" d="M7.11924 13.9258C7.66093 14.0334 8.01282 14.5598 7.90519 15.1015L6.9383 19.968L11.2692 17.5444C11.7511 17.2746 12.3605 17.4467 12.6302 17.9286C12.8999 18.4106 12.7279 19.0199 12.2459 19.2896L6.9701 22.2421C6.97007 22.2421 6.97013 22.2421 6.9701 22.2421C5.85525 22.8661 4.51559 21.8988 4.76549 20.6411C4.76549 20.6411 4.76548 20.6411 4.76549 20.6411L5.94354 14.7118C6.05116 14.1701 6.57754 13.8182 7.11924 13.9258Z" fill="#383B41"/>
<path fill-rule="evenodd" clip-rule="evenodd" d="M9.6124 8.64329C9.67745 9.19173 9.28559 9.68906 8.73715 9.75411L3.80989 10.3385L7.45287 13.7077C7.85833 14.0827 7.88304 14.7154 7.50805 15.1209C7.13306 15.5263 6.50037 15.551 6.09491 15.176L1.65623 11.071C1.65622 11.071 1.65624 11.071 1.65623 11.071C0.716529 10.2019 1.22695 8.63086 2.498 8.48012C2.49802 8.48012 2.49799 8.48013 2.498 8.48012L8.50158 7.76803C9.05002 7.70298 9.54735 8.09485 9.6124 8.64329Z" fill="#383B41"/>
<path fill-rule="evenodd" clip-rule="evenodd" d="M13.3634 2.56554C13.3634 2.56554 13.3634 2.56553 13.3634 2.56554L15.8956 8.05528C16.1269 8.55678 15.9079 9.15086 15.4064 9.38218C14.9049 9.61351 14.3108 9.39449 14.0795 8.89298L12.0012 4.38742L9.92292 8.8931C9.6916 9.3946 9.09752 9.61363 8.59602 9.3823C8.09451 9.15098 7.87549 8.5569 8.10681 8.05539L10.639 2.56561C10.639 2.56561 10.639 2.56561 10.639 2.56561C11.175 1.4036 12.8271 1.40294 13.3634 2.56554Z" fill="#383B41"/>
<path fill-rule="evenodd" clip-rule="evenodd" d="M14.389 8.64348C14.454 8.09503 14.9514 7.70315 15.4998 7.76818L21.5037 8.4801C21.5037 8.4801 21.5037 8.4801 21.5037 8.4801C22.7769 8.63107 23.2831 10.2035 22.3451 11.071C22.3451 11.0711 22.3451 11.071 22.3451 11.071L17.907 15.176C17.5016 15.551 16.8689 15.5264 16.4939 15.1209C16.1189 14.7155 16.1435 14.0828 16.549 13.7078L20.1916 10.3385L15.2643 9.75427C14.7159 9.68924 14.324 9.19192 14.389 8.64348Z" fill="#383B41"/>
<path fill-rule="evenodd" clip-rule="evenodd" d="M16.8825 13.9254C17.4242 13.8178 17.9506 14.1697 18.0582 14.7114L19.236 20.641C19.236 20.6411 19.236 20.641 19.236 20.641C19.485 21.8942 18.1512 22.8692 17.0322 22.2429L11.7568 19.2891C11.2749 19.0193 11.103 18.4099 11.3728 17.9281C11.6426 17.4462 12.252 17.2742 12.7339 17.5441L17.0633 19.9681L16.0965 15.1011C15.9889 14.5594 16.3408 14.033 16.8825 13.9254Z" fill="#383B41"/>
</svg>
