<svg width="22" height="22" viewBox="0 0 22 22" fill="none" xmlns="http://www.w3.org/2000/svg">
<path fill-rule="evenodd" clip-rule="evenodd" d="M9.63863 1.56586C10.1746 0.404062 11.8268 0.403593 12.3632 1.56586L14.7773 6.80121L20.5039 7.4809C21.777 7.63197 22.2826 9.20425 21.3447 10.0717L17.1123 13.9858L18.2363 19.642C18.4848 20.895 17.151 21.8698 16.0322 21.2436L11.0019 18.4262L5.96968 21.2426C4.85499 21.8662 3.516 20.8995 3.76558 19.642L4.88863 13.9858L0.656204 10.0717C-0.28348 9.20264 0.227 7.63169 1.498 7.4809L7.22359 6.80121L8.43111 4.18354L9.63863 1.56586ZM8.92281 7.89399C8.81104 8.13608 8.61433 8.31131 8.38472 8.40278C8.22684 8.59131 8.00072 8.72306 7.73726 8.75434L2.80952 9.3393L6.45308 12.7084C6.64827 12.8891 6.75396 13.1295 6.77046 13.3754C6.90169 13.5841 6.95704 13.8411 6.90523 14.102L5.93843 18.9682L10.2695 16.5454C10.5006 16.416 10.7607 16.3884 10.999 16.4477C11.2386 16.3867 11.5016 16.414 11.7343 16.5444L16.0634 18.9682L15.0966 14.102C15.0449 13.8414 15.0995 13.584 15.2304 13.3754C15.2469 13.1295 15.3536 12.889 15.5488 12.7084L19.1914 9.3393L14.2646 8.75532C13.9999 8.72393 13.7722 8.59075 13.6142 8.40082C13.3863 8.30897 13.1912 8.13466 13.08 7.89399L11.0009 3.38813L8.92281 7.89399Z" fill="#383B41"/>
</svg>
