<svg width="24" height="24" viewBox="0 0 24 24" fill="none" xmlns="http://www.w3.org/2000/svg">
<path fill-rule="evenodd" clip-rule="evenodd" d="M10.6963 3.85138C11.3586 3.74955 12.0279 3.98618 12.4791 4.48167C12.8572 4.89702 12.9315 5.45808 12.9641 5.84167C13.0003 6.26752 13.0002 6.8238 13.0002 7.47918V16.5201C13.0002 17.1754 13.0003 17.7317 12.9641 18.1576C12.9315 18.5411 12.8572 19.1022 12.4791 19.5176C12.0279 20.0131 11.3586 20.2497 10.6963 20.1478C10.1411 20.0625 9.73073 19.6727 9.46428 19.3949C9.16847 19.0864 8.81886 18.6537 8.40696 18.144L6.70273 16.035C6.60834 15.9182 6.56058 15.8596 6.52391 15.8187C6.52291 15.8176 6.52194 15.8165 6.52102 15.8155C6.51965 15.8154 6.51821 15.8153 6.51671 15.8152C6.46185 15.8124 6.38625 15.8121 6.23606 15.8121H4.81273C4.76685 15.8121 4.72141 15.8122 4.67642 15.8122C4.05746 15.813 3.52237 15.8137 3.05918 15.6607C2.15719 15.3627 1.44962 14.6552 1.15164 13.7532C0.998629 13.29 0.999317 12.7549 1.00011 12.1359C1.00017 12.0909 1.00023 12.0455 1.00023 11.9996C1.00023 11.9537 1.00017 11.9083 1.00011 11.8633C0.999317 11.2444 0.998629 10.7093 1.15164 10.2461C1.44962 9.34408 2.15719 8.63651 3.05918 8.33853C3.52237 8.18551 4.05747 8.1862 4.67642 8.187C4.72141 8.18706 4.76685 8.18711 4.81273 8.18711H6.23606C6.38625 8.18711 6.46185 8.18681 6.51671 8.18399C6.51821 8.18392 6.51965 8.18384 6.52102 8.18376C6.52194 8.18274 6.52291 8.18167 6.52391 8.18056C6.56058 8.13966 6.60834 8.08104 6.70273 7.96423L8.40694 5.85527C8.81885 5.3455 9.16846 4.91283 9.46428 4.60435C9.73073 4.3265 10.1411 3.93675 10.6963 3.85138ZM10.9078 5.98865C10.6782 6.22802 10.3823 6.59279 9.93355 7.14816L8.25832 9.22127C8.24634 9.2361 8.23406 9.25138 8.22149 9.26704C8.08541 9.43648 7.91412 9.64978 7.69087 9.81044C7.49748 9.94962 7.28077 10.0531 7.05096 10.1161C6.78568 10.1887 6.51213 10.1879 6.2948 10.1872C6.27472 10.1872 6.25513 10.1871 6.23606 10.1871H4.81273C3.97742 10.1871 3.80082 10.1998 3.68655 10.2376C3.38588 10.3369 3.15003 10.5728 3.0507 10.8734C3.01295 10.9877 3.00023 11.1643 3.00023 11.9996C3.00023 12.8349 3.01295 13.0115 3.0507 13.1258C3.15003 13.4265 3.38588 13.6623 3.68655 13.7616C3.80082 13.7994 3.97742 13.8121 4.81273 13.8121H6.23606C6.25513 13.8121 6.27473 13.8121 6.29481 13.812C6.51213 13.8113 6.78569 13.8105 7.05096 13.8832C7.28077 13.9461 7.49748 14.0496 7.69087 14.1888C7.91412 14.3495 8.08541 14.5627 8.22149 14.7322C8.23406 14.7479 8.24634 14.7631 8.25832 14.778L9.93355 16.8511C10.3823 17.4064 10.6782 17.7712 10.9078 18.0106C10.9279 18.0315 10.9465 18.0504 10.9636 18.0673C10.9662 18.0434 10.9688 18.0171 10.9713 17.9881C10.9993 17.6577 11.0002 17.188 11.0002 16.474V7.52528C11.0002 6.81124 10.9993 6.34155 10.9713 6.01108C10.9688 5.98215 10.9662 5.95581 10.9636 5.93189C10.9465 5.94884 10.9279 5.96769 10.9078 5.98865ZM15.6789 7.66085C16.0555 7.25693 16.6883 7.23484 17.0922 7.61149C17.6917 8.1705 18.1703 8.84641 18.4984 9.59752C18.8266 10.3486 18.9973 11.159 19.0002 11.9787C19.0031 12.7983 18.8379 13.6099 18.515 14.3633C18.1921 15.1166 17.7183 15.7959 17.1228 16.3591C16.7215 16.7385 16.0886 16.7208 15.7091 16.3196C15.3296 15.9183 15.3473 15.2854 15.7486 14.9059C16.1456 14.5305 16.4615 14.0776 16.6768 13.5754C16.892 13.0731 17.0021 12.5321 17.0002 11.9857C16.9983 11.4392 16.8844 10.899 16.6657 10.3982C16.4469 9.89748 16.1279 9.44687 15.7282 9.0742C15.3243 8.69754 15.3022 8.06476 15.6789 7.66085Z" fill="#383B41"/>
</svg>
