<svg width="24" height="24" viewBox="0 0 24 24" fill="none" xmlns="http://www.w3.org/2000/svg">
<path fill-rule="evenodd" clip-rule="evenodd" d="M3.70696 3.29289C4.09748 2.90237 4.73065 2.90237 5.12117 3.29289L19.2633 17.435C19.6538 17.8256 19.6538 18.4587 19.2633 18.8492C18.8728 19.2398 18.2396 19.2398 17.8491 18.8492L13.1531 14.1533C13.1009 14.1484 13.0483 14.1393 12.9959 14.1258C12.3 13.9469 11.5683 13.9592 10.8776 14.161C10.1875 14.3627 9.56448 14.7466 9.07413 15.2725C8.69747 15.6764 8.06469 15.6985 7.66078 15.3218C7.25686 14.9452 7.23477 14.3124 7.61142 13.9085C8.34695 13.1197 9.28147 12.5438 10.3167 12.2413C10.5654 12.1686 10.8179 12.1123 11.0723 12.0725L9.47215 10.4723C8.48902 10.8531 7.60257 11.4518 6.88077 12.2258C6.50411 12.6298 5.87134 12.6519 5.46742 12.2752C5.0635 11.8985 5.04141 11.2658 5.41806 10.8618C6.14803 10.0791 7.00897 9.4357 7.95835 8.9585L6.48323 7.48337C5.54644 8.02641 4.69437 8.70514 3.95499 9.49804C3.57833 9.90195 2.94555 9.92405 2.54164 9.54739C2.13772 9.17073 2.11563 8.53795 2.49228 8.13404C3.24552 7.32629 4.09772 6.61879 5.0277 6.02784L3.70696 4.70711C3.31644 4.31658 3.31644 3.68342 3.70696 3.29289ZM11.2288 4.02287C13.1391 3.90938 15.0508 4.21929 16.8274 4.92991C18.6042 5.64057 20.2022 6.73472 21.5072 8.13425C21.8839 8.53817 21.8618 9.17094 21.4579 9.5476C21.054 9.92426 20.4212 9.90216 20.0445 9.49825C18.9402 8.31403 17.5881 7.38821 16.0847 6.78688C14.5812 6.18552 12.9637 5.92333 11.3474 6.01935C10.7961 6.05211 10.3226 5.63173 10.2899 5.08042C10.2571 4.52911 10.6775 4.05563 11.2288 4.02287ZM14.0422 9.2009C14.2473 8.68811 14.8293 8.43868 15.3421 8.64378C16.5721 9.13577 17.6784 9.89326 18.5819 10.8622C18.9586 11.2661 18.9365 11.8989 18.5326 12.2755C18.1287 12.6522 17.4959 12.6301 17.1192 12.2262C16.4165 11.4726 15.5561 10.8834 14.5993 10.5008C14.0866 10.2957 13.8371 9.71369 14.0422 9.2009ZM10 18C10 16.8954 10.8954 16 12 16C13.1046 16 14 16.8954 14 18C14 19.1046 13.1046 20 12 20C10.8954 20 10 19.1046 10 18Z" fill="#383B41"/>
</svg>
