<svg width="24" height="24" viewBox="0 0 24 24" fill="none" xmlns="http://www.w3.org/2000/svg">
<path fill-rule="evenodd" clip-rule="evenodd" d="M16.3337 6.88966C14.9525 6.29769 13.4635 5.99482 11.9607 6.00007C10.4582 6.00531 8.97326 6.31865 7.59604 6.92034C6.21901 7.52195 4.97984 8.39933 3.95499 9.49835C3.57833 9.90226 2.94555 9.92436 2.54164 9.5477C2.13772 9.17105 2.11563 8.53827 2.49228 8.13435C3.70347 6.83551 5.16794 5.79861 6.79534 5.08762C8.42256 4.3767 10.1776 4.00628 11.9537 4.00008C13.7296 3.99388 15.4892 4.35175 17.1215 5.05139C18.754 5.75105 20.2259 6.77833 21.4461 8.06859C21.8255 8.46987 21.8078 9.10278 21.4066 9.48225C21.0053 9.86172 20.3724 9.84404 19.9929 9.44276C18.9603 8.35083 17.7147 7.48159 16.3337 6.88966ZM14.7571 10.5662C13.8781 10.1894 12.9318 9.99673 11.9756 10.0001C11.0193 10.0034 10.0741 10.2026 9.1978 10.5854C8.32151 10.9682 7.53295 11.5266 6.88077 12.2259C6.50411 12.6298 5.87133 12.6519 5.46742 12.2753C5.0635 11.8986 5.04141 11.2658 5.41806 10.8619C6.25658 9.96274 7.27044 9.24488 8.39711 8.75266C9.52381 8.26041 10.7392 8.00437 11.9687 8.00008C13.1983 7.99579 14.4151 8.2436 15.545 8.7279C16.675 9.21219 17.6944 9.92296 18.5392 10.8164C18.9187 11.2177 18.901 11.8506 18.4998 12.2301C18.0985 12.6095 17.4656 12.5918 17.0861 12.1906C16.4291 11.4959 15.6362 10.943 14.7571 10.5662ZM13.5757 14.3236C13.0734 14.1083 12.5324 13.9982 11.9861 14.0001C11.4394 14.002 10.8986 14.1158 10.3981 14.3344C9.89741 14.5532 9.4468 14.8722 9.07413 15.2719C8.69747 15.6758 8.06469 15.6979 7.66078 15.3212C7.25686 14.9446 7.23477 14.3118 7.61142 13.9079C8.17043 13.3084 8.84634 12.8298 9.59745 12.5017C10.3488 12.1734 11.1597 12.0029 11.9791 12.0001C12.7988 11.9972 13.6103 12.1624 14.3636 12.4853C15.1168 12.8081 15.7963 13.2818 16.3596 13.8775C16.7391 14.2788 16.7214 14.9117 16.3201 15.2912C15.9188 15.6706 15.2859 15.6529 14.9065 15.2517C14.5311 14.8548 14.0782 14.5389 13.5757 14.3236ZM10 18.0001C10 16.8955 10.8954 16.0001 12 16.0001C13.1046 16.0001 14 16.8955 14 18.0001C14 19.1046 13.1046 20.0001 12 20.0001C10.8954 20.0001 10 19.1046 10 18.0001Z" fill="#383B41"/>
</svg>
