<svg width="24" height="24" viewBox="0 0 24 24" fill="none" xmlns="http://www.w3.org/2000/svg">
<path fill-rule="evenodd" clip-rule="evenodd" d="M5.5677 3C5.57833 3 5.58897 3.00001 5.59961 3.00001L18.4315 3C18.6839 2.99997 18.9298 2.99994 19.1381 3.01694C19.3666 3.0356 19.6366 3.07961 19.9082 3.21799C20.2855 3.41024 20.5904 3.71658 20.7816 4.09191C20.9198 4.36299 20.964 4.63247 20.9828 4.86123C21.0001 5.0707 21 5.31793 21 5.57199V6.3448C21 6.36096 21 6.3776 21.0001 6.39468C21.0006 6.58089 21.0013 6.81867 20.945 7.05287C20.8161 7.58989 20.2762 7.92072 19.7392 7.7918C19.2076 7.66417 18.878 7.13382 18.9965 6.60217C18.9968 6.59815 18.9972 6.59202 18.9976 6.58341C18.9998 6.53709 19 6.47331 19 6.3448V5.6001C19 5.30394 18.9991 5.14159 18.9896 5.02517C18.9892 5.02033 18.9888 5.01575 18.9883 5.01144C18.9843 5.01106 18.9799 5.01069 18.9753 5.01031C18.8586 5.00078 18.6961 5.00001 18.3996 5.00001H5.59961C5.30307 5.00001 5.14092 5.00078 5.02442 5.01031C5.01986 5.01068 5.01554 5.01105 5.01145 5.01143C5.01107 5.01558 5.01069 5.01997 5.01031 5.02461C5.00078 5.14126 5.00001 5.30359 5.00001 5.6001V6.33736C5.00001 6.88965 4.55229 7.33736 4.00001 7.33736C3.44772 7.33736 3.00001 6.88965 3.00001 6.33736V5.6001C3.00001 5.58947 3 5.57884 3 5.56822C2.99997 5.31582 2.99994 5.06999 3.01695 4.86179C3.03562 4.63323 3.07966 4.3634 3.21799 4.09191C3.40974 3.71559 3.71559 3.40974 4.09191 3.21799C4.36326 3.07973 4.63286 3.03564 4.86149 3.01695C5.0696 2.99994 5.31534 2.99997 5.5677 3Z" fill="#383B41"/>
<path fill-rule="evenodd" clip-rule="evenodd" d="M5.00021 6.58599C5.00021 6.58599 5.00021 6.58598 5.00021 6.58599ZM4.99883 6.58031C4.86747 6.04663 4.32952 5.71859 3.79439 5.84706C3.25737 5.97599 2.92654 6.51585 3.05547 7.05288C3.10465 7.25772 3.18579 7.45264 3.29503 7.63091C3.42147 7.83724 3.59117 8.00603 3.72572 8.13986C3.73808 8.15216 3.75014 8.16416 3.76185 8.17587L8.82459 13.2386C8.91724 13.3313 8.96314 13.3775 8.99502 13.4124C8.99768 13.4154 8.99998 13.4179 9.00196 13.4201C9.13346 13.9536 9.67129 14.2815 10.2063 14.153C10.7433 14.0241 11.0742 13.4843 10.9452 12.9472C10.8955 12.7401 10.8131 12.545 10.7051 12.3689C10.5787 12.1625 10.4096 11.9944 10.2749 11.8604C10.2626 11.8481 10.2505 11.8361 10.2388 11.8244L5.17606 6.76165C5.0835 6.66909 5.03741 6.62266 5.00533 6.58751C5.00287 6.58481 5.00071 6.58242 4.99883 6.58031Z" fill="#383B41"/>
<path fill-rule="evenodd" clip-rule="evenodd" d="M20.375 6.25576C20.8459 6.54433 20.9937 7.16 20.7051 7.6309C20.5783 7.83789 20.4093 8.00613 20.2731 8.14166C20.2614 8.1533 20.25 8.1647 20.2388 8.17586L15.1761 13.2386C15.1717 13.243 15.1673 13.2473 15.1629 13.2515C15.0779 13.3365 15.0347 13.3801 15.0044 13.4134C15.0024 13.4156 15.0005 13.4177 14.9989 13.4195C14.8677 13.9533 14.3296 14.2815 13.7944 14.153C13.2574 14.0241 12.9265 13.4842 13.0555 12.9472C13.1045 12.7432 13.1854 12.5478 13.295 12.3689C13.4211 12.1632 13.5899 11.9953 13.7228 11.8631C13.735 11.8509 13.7469 11.8391 13.7584 11.8276C13.7628 11.8232 13.7672 11.8189 13.7716 11.8146L18.8246 6.76165C18.9167 6.66954 18.9627 6.62312 18.9943 6.58838C19.0007 6.5813 19.0051 6.57628 19.0078 6.57309C19.2996 6.11234 19.9084 5.96983 20.375 6.25576Z" fill="#383B41"/>
<path fill-rule="evenodd" clip-rule="evenodd" d="M10 12.6552C10.5523 12.6552 11 13.1029 11 13.6552V18.411C11 18.8591 11.001 19.1264 11.0184 19.3167C11.0194 19.3276 11.0204 19.3377 11.0215 19.3472C11.0304 19.3439 11.04 19.3402 11.0502 19.3363C11.2281 19.2668 11.4676 19.1483 11.8682 18.948L12.6682 18.548C12.839 18.4626 12.9269 18.418 12.9882 18.3823C12.9905 18.381 12.9927 18.3797 12.9947 18.3785C12.9948 18.3766 12.995 18.3747 12.9951 18.3726C12.9996 18.3012 13 18.2025 13 18.011V13.6626C13 13.1103 13.4477 12.6626 14 12.6626C14.5523 12.6626 15 13.1103 15 13.6626V18.011C15 18.0355 15.0001 18.0607 15.0002 18.0865C15.0012 18.3627 15.0026 18.71 14.8907 19.0344C14.793 19.3175 14.6337 19.5716 14.4283 19.7813C14.1878 20.0268 13.8774 20.1807 13.6284 20.3041C13.6059 20.3153 13.584 20.3261 13.5626 20.3368L12.7282 20.754C12.3756 20.9304 12.052 21.0922 11.7774 21.1994C11.4952 21.3095 11.1234 21.4219 10.7074 21.3604C10.1631 21.28 9.67634 20.9791 9.36109 20.5284C9.11991 20.1835 9.05432 19.8004 9.02673 19.4989C8.99994 19.2061 8.99997 18.8453 9 18.4521C9 18.4385 9 18.4248 9 18.411V13.6552C9 13.1029 9.44772 12.6552 10 12.6552Z" fill="#383B41"/>
</svg>
