<svg width="24" height="24" viewBox="0 0 24 24" fill="none" xmlns="http://www.w3.org/2000/svg">
<path fill-rule="evenodd" clip-rule="evenodd" d="M3.29278 3.29289C3.68331 2.90237 4.31647 2.90237 4.707 3.29289L20.707 19.2929C21.0975 19.6834 21.0975 20.3166 20.707 20.7071C20.3165 21.0976 19.6833 21.0976 19.2928 20.7071L16.4769 17.8912C15.1421 18.5409 13.6256 18.9999 11.9999 18.9999C8.04374 18.9999 4.68977 16.2854 2.88178 14.488C2.86278 14.4691 2.84385 14.4503 2.82498 14.4316C2.39865 14.0087 2.00721 13.6204 1.7821 12.9302C1.68387 12.6291 1.65284 12.285 1.65283 11.9999C1.65283 11.7149 1.68384 11.3708 1.78213 11.0695C2.00737 10.3793 2.39946 9.99037 2.82663 9.56668C2.84546 9.548 2.86436 9.52926 2.88331 9.51042C3.62258 8.77563 4.59141 7.91683 5.73308 7.1474L3.29278 4.70711C2.90226 4.31658 2.90226 3.68342 3.29278 3.29289ZM7.17768 8.59201C6.03339 9.31838 5.04617 10.1805 4.29323 10.9289C3.80092 11.4182 3.74737 11.4941 3.68347 11.6899L3.68347 11.6899C3.6834 11.6902 3.68065 11.6989 3.67677 11.7175C3.67292 11.736 3.66878 11.7602 3.66502 11.7901C3.6574 11.8508 3.65283 11.9231 3.65283 11.9999C3.65283 12.0767 3.65741 12.1491 3.66503 12.2097C3.66878 12.2396 3.67294 12.2639 3.67678 12.2824C3.68073 12.3013 3.68351 12.31 3.6835 12.31C3.7474 12.5059 3.80059 12.5813 4.29183 13.0696C6.04271 14.8103 8.89473 16.9999 11.9999 16.9999C13.0182 16.9999 14.0149 16.7646 14.9638 16.3782L13.2931 14.7074C12.9013 14.8948 12.4624 15 11.9999 15C10.343 15 8.99989 13.6569 8.99989 12C8.99989 11.5372 9.10511 11.0984 9.29249 10.7068L7.17768 8.59201Z" fill="#383B41"/>
<path fill-rule="evenodd" clip-rule="evenodd" d="M10.8732 5.07256C11.2423 5.02535 11.6183 5 12.0001 5C15.9562 5 19.3105 7.7145 21.1185 9.51193C21.1372 9.53045 21.1557 9.54888 21.1742 9.56725C21.601 9.9906 21.9929 10.3795 22.2181 11.0699C22.3163 11.3709 22.3474 11.7149 22.3475 12.0001C22.3476 12.2851 22.3166 12.6294 22.2183 12.9308C21.9934 13.6199 21.6018 14.0083 21.1766 14.4301C21.1604 14.4462 21.1441 14.4623 21.1277 14.4786C21.1266 14.4797 21.1254 14.4809 21.1243 14.482C21.1218 14.4846 21.1194 14.487 21.1169 14.4895C20.8302 14.7744 20.5104 15.0767 20.1605 15.3843C19.7458 15.7491 19.114 15.7086 18.7492 15.2939C18.3845 14.8792 18.425 14.2473 18.8397 13.8826C19.1528 13.6072 19.4403 13.3358 19.6991 13.0789C19.7026 13.0752 19.7062 13.0716 19.7098 13.068C20.2002 12.5806 20.2534 12.5052 20.3169 12.3104L21.2676 12.6206L20.3169 12.3104L20.317 12.3104C20.3171 12.3099 20.3198 12.3012 20.3236 12.2829C20.3275 12.2645 20.3316 12.2403 20.3353 12.2104C20.343 12.1497 20.3475 12.0774 20.3475 12.0005C20.3475 11.9237 20.3429 11.8513 20.3352 11.7906C20.3315 11.7606 20.3273 11.7363 20.3235 11.7178C20.3216 11.7087 20.3199 11.7018 20.3186 11.6969C20.3175 11.6926 20.3168 11.6904 20.3167 11.6901C20.2528 11.4942 20.1991 11.4181 19.7085 10.9303C17.9576 9.18967 15.1053 7 12.0001 7C11.7069 7 11.4158 7.01946 11.127 7.0564C10.5792 7.12648 10.0783 6.73919 10.0082 6.19137C9.93811 5.64355 10.3254 5.14264 10.8732 5.07256Z" fill="#383B41"/>
</svg>
