<svg width="24" height="24" viewBox="0 0 24 24" fill="none" xmlns="http://www.w3.org/2000/svg">
<path fill-rule="evenodd" clip-rule="evenodd" d="M15.3224 7.03434C15.2246 7.00804 15.1063 7.00001 14.5014 7.00001H7.2002C6.62365 7.00001 6.25126 7.00078 5.9678 7.02394C5.69595 7.04614 5.59517 7.08384 5.54579 7.109C5.35763 7.20487 5.20487 7.35763 5.109 7.54579C5.08383 7.59518 5.04614 7.69595 5.02393 7.9678C5.00078 8.25126 5 8.62366 5 9.2002V14.8002C5 15.3768 5.00078 15.7489 5.02393 16.0322C5.04612 16.3037 5.08378 16.4044 5.109 16.4539C5.20516 16.6426 5.35819 16.7956 5.54579 16.8912C5.59501 16.9163 5.69554 16.9539 5.96686 16.9761C6.2498 16.9992 6.62146 17 7.19691 17H14.5014C15.1058 17 15.2245 16.9918 15.3224 16.9655C15.4358 16.935 15.5428 16.8849 15.6383 16.8176C15.7217 16.759 15.8063 16.6712 16.1917 16.2087L18.5251 13.4086C18.8381 13.0331 19.0372 12.7928 19.1765 12.5975C19.3084 12.4125 19.3435 12.3254 19.358 12.2745C19.4092 12.0952 19.4092 11.9045 19.358 11.7252C19.3436 11.6745 19.3085 11.5876 19.1766 11.4026C19.0373 11.2074 18.8382 10.9673 18.5251 10.5916L16.1917 7.79156C15.8055 7.32812 15.7215 7.24056 15.6383 7.18205C15.5432 7.11506 15.4362 7.06495 15.3224 7.03434ZM14.5956 4.99994C15.0532 4.99947 15.4556 4.99905 15.842 5.10302C16.1806 5.19411 16.5015 5.34388 16.7894 5.54648C17.1181 5.77778 17.3769 6.08896 17.6723 6.44409C17.6908 6.46629 17.7094 6.48866 17.7282 6.51119L20.0815 9.33519C20.3673 9.67814 20.6161 9.97671 20.8048 10.2412C21.0052 10.5221 21.1797 10.8205 21.2813 11.1766C21.4347 11.7145 21.4347 12.2852 21.2813 12.8232C21.1798 13.1791 21.0053 13.4776 20.8049 13.7586C20.6157 14.0241 20.3659 14.3237 20.0789 14.6681L17.7282 17.489C17.7103 17.5105 17.6925 17.5318 17.6749 17.553C17.3778 17.9101 17.1188 18.2214 16.7894 18.4532C16.5018 18.6556 16.181 18.8056 15.842 18.8968C15.4551 19.0009 15.0524 19.0005 14.5936 19.0001C14.5631 19 14.5324 19 14.5014 19H7.15839C6.6323 19 6.17815 19 5.80397 18.9695C5.40906 18.9372 5.016 18.8659 4.63781 18.6732C4.07276 18.3853 3.61431 17.9258 3.32698 17.3619C3.13421 16.9835 3.06288 16.5904 3.03057 16.1951C2.99997 15.8206 2.99998 15.3659 3 14.8388V9.16168C2.99998 8.63451 2.99997 8.17965 3.03057 7.80499C3.06286 7.40962 3.13416 7.01625 3.32698 6.63781C3.6146 6.07333 4.07332 5.61461 4.63781 5.32699C5.01625 5.13416 5.40962 5.06287 5.80499 5.03057C6.17965 4.99997 6.63451 4.99999 7.16168 5.00001L14.5014 5.00001C14.533 5.00001 14.5644 4.99997 14.5956 4.99994Z" fill="#383B41"/>
</svg>
