<svg width="24" height="24" viewBox="0 0 24 24" fill="none" xmlns="http://www.w3.org/2000/svg">
<path fill-rule="evenodd" clip-rule="evenodd" d="M6.41618 1.99998C6.44387 2 6.47184 2.00003 6.50009 2.00003C6.52833 2.00003 6.55629 2 6.58397 1.99998C6.96467 1.99968 7.2925 1.99942 7.58536 2.05767C8.77486 2.29428 9.70595 3.22367 9.94279 4.41431C10.0007 4.70548 10.0004 5.03128 10.0001 5.40525C10.0001 5.43251 10.0001 5.46002 10.0001 5.4878V18.5123C10.0001 18.54 10.0001 18.5675 10.0001 18.5948C10.0004 18.9688 10.0007 19.2941 9.94279 19.5853C9.70613 20.7751 8.77619 21.7059 7.5858 21.9427C7.29294 22.001 6.96426 22.0007 6.58357 22.0004C6.55587 22.0004 6.5279 22.0004 6.49964 22.0004C6.4714 22.0004 6.44345 22.0004 6.41577 22.0004C6.03507 22.0007 5.70723 22.001 5.41437 21.9427C4.22373 21.7059 3.29434 20.7748 3.05773 19.5853C2.99948 19.2924 2.99974 18.9646 3.00004 18.5839C3.00007 18.5562 3.00009 18.5283 3.00009 18.5V5.50003C3.00009 5.47178 3.00007 5.44381 3.00004 5.41612C2.99974 5.03542 2.99948 4.70717 3.05773 4.41431C3.29445 3.22424 4.2243 2.29439 5.41437 2.05767C5.70723 1.99942 6.03549 1.99968 6.41618 1.99998ZM6.50009 4.00003C5.98744 4.00003 5.87679 4.00487 5.80455 4.01924C5.40786 4.09815 5.09821 4.4078 5.0193 4.80449C5.00493 4.87673 5.00009 4.98738 5.00009 5.50003V18.5C5.00009 19.0126 5.00493 19.1229 5.0193 19.1951C5.09832 19.5924 5.40843 19.9024 5.80455 19.9812C5.8768 19.9955 5.98706 20.0004 6.49964 20.0004C7.01234 20.0004 7.1234 19.9955 7.19562 19.9812C7.59199 19.9023 7.90225 19.5921 7.98122 19.1951C7.99526 19.1245 8.00009 19.0164 8.00009 18.5123V5.48779C8.00009 4.9836 7.99526 4.87509 7.98122 4.80449C7.90242 4.40837 7.59243 4.09826 7.19518 4.01924C7.12293 4.00487 7.01267 4.00003 6.50009 4.00003ZM17.4162 1.99998C17.4439 2 17.4718 2.00003 17.5001 2.00003C17.5283 2.00003 17.5563 2 17.584 1.99998C17.9647 1.99968 18.2925 1.99942 18.5854 2.05767L18.3903 3.03846L18.5854 2.05767C19.7749 2.29428 20.706 3.22367 20.9428 4.41431C21.0007 4.70549 21.0004 5.0313 21.0001 5.4053C21.0001 5.43254 21.0001 5.46004 21.0001 5.4878V18.5123C21.0001 18.54 21.0001 18.5675 21.0001 18.5947C21.0004 18.9687 21.0007 19.2941 20.9428 19.5853C20.7061 20.775 19.7762 21.7059 18.5858 21.9427C18.2929 22.001 17.9643 22.0007 17.5836 22.0004C17.5559 22.0004 17.5279 22.0004 17.4996 22.0004C17.4714 22.0004 17.4434 22.0004 17.4158 22.0004C17.0351 22.0007 16.7072 22.001 16.4144 21.9427C15.2237 21.7059 14.2943 20.7748 14.0577 19.5853C13.9995 19.2924 13.9997 18.9646 14 18.5839C14.0001 18.5562 14.0001 18.5283 14.0001 18.5V5.50003C14.0001 5.47178 14.0001 5.44381 14 5.41613C13.9997 5.03543 13.9995 4.70717 14.0577 4.41431C14.2945 3.22424 15.2243 2.29439 16.4144 2.05767C16.7072 1.99942 17.0355 1.99968 17.4162 1.99998ZM17.5001 4.00003C16.9874 4.00003 16.8768 4.00487 16.8046 4.01924C16.4079 4.09815 16.0982 4.4078 16.0193 4.80449C16.0049 4.87673 16.0001 4.98738 16.0001 5.50003V18.5C16.0001 19.0126 16.0049 19.1229 16.0193 19.1951C16.0983 19.5924 16.4084 19.9024 16.8046 19.9812C16.8768 19.9955 16.9871 20.0004 17.4996 20.0004C18.0123 20.0004 18.1234 19.9955 18.1956 19.9812C18.592 19.9023 18.9022 19.5921 18.9812 19.1951C18.9953 19.1245 19.0001 19.0164 19.0001 18.5123V5.48778C19.0001 4.9836 18.9953 4.87509 18.9812 4.80449C18.9024 4.40837 18.5924 4.09826 18.1952 4.01924C18.1229 4.00487 18.0127 4.00003 17.5001 4.00003Z" fill="#383B41"/>
</svg>
