<svg width="24" height="24" viewBox="0 0 24 24" fill="none" xmlns="http://www.w3.org/2000/svg">
<path fill-rule="evenodd" clip-rule="evenodd" d="M7 4C7.55228 4 8 4.44772 8 5V9.80581C8.12016 9.70412 8.24573 9.60885 8.37311 9.51799C8.83287 9.19005 9.45002 8.83006 10.1932 8.39658L12.6916 6.93918L12.7279 6.91803C13.4803 6.47907 14.1047 6.11486 14.6217 5.8736C15.1434 5.63018 15.7053 5.43667 16.3042 5.49771C17.1522 5.58416 17.9229 6.02739 18.4244 6.71582C18.7789 7.20232 18.895 7.78513 18.9477 8.35876C19 8.92786 19 9.65203 19 10.5253V13.4747C19 14.3479 19 15.0722 18.9477 15.6414C18.895 16.2151 18.7789 16.7981 18.4244 17.2846C17.9224 17.9736 17.1515 18.4157 16.3042 18.5021C15.7052 18.5632 15.1431 18.3696 14.6211 18.126C14.1037 17.8846 13.4789 17.5201 12.7258 17.0807L10.1846 15.5984C9.44443 15.1667 8.82934 14.8079 8.37094 14.4809C8.24433 14.3905 8.1195 14.2958 8 14.1947V19C8 19.5523 7.55228 20 7 20C6.44772 20 6 19.5523 6 19V5C6 4.44772 6.44772 4 7 4ZM15.4674 7.68602C15.0436 7.88376 14.4988 8.20037 13.6934 8.67022L13.6854 8.67487L11.2422 10.1001C10.4466 10.5641 9.9103 10.8782 9.5345 11.1462C9.15496 11.417 9.07509 11.5498 9.0549 11.5953C8.94059 11.8533 8.94059 12.1475 9.0549 12.4054C9.07494 12.4507 9.15432 12.5829 9.53246 12.8527C9.90698 13.1199 10.4414 13.4328 11.2344 13.8954L13.6913 15.3286C14.4974 15.7988 15.0427 16.1157 15.4668 16.3136C15.8959 16.5138 16.0524 16.5174 16.1013 16.5124C16.3843 16.4836 16.641 16.3361 16.808 16.1069C16.837 16.067 16.9128 15.93 16.9561 15.4585C16.9989 14.9925 17 14.3618 17 13.4287V10.5713C17 9.6381 16.9989 9.00761 16.9561 8.54175C16.9128 8.07044 16.8371 7.93347 16.808 7.89356C16.6405 7.66374 16.3836 7.51618 16.1013 7.4874C16.0525 7.48242 15.8962 7.48595 15.4674 7.68602Z" fill="#383B41"/>
</svg>
