<svg width="24" height="24" viewBox="0 0 24 24" fill="none" xmlns="http://www.w3.org/2000/svg">
<path fill-rule="evenodd" clip-rule="evenodd" d="M17 4C17.5523 4 18 4.44772 18 5V19C18 19.5523 17.5523 20 17 20C16.4477 20 16 19.5523 16 19V14.1948C15.8806 14.2958 15.7558 14.3905 15.6293 14.4807C15.171 14.8077 14.556 15.1664 13.8161 15.598L13.774 15.6225L13.7719 15.6238L13.7655 15.6275L13.7634 15.6287L11.2758 17.0798C10.5219 17.5196 9.89651 17.8844 9.37866 18.126C8.8566 18.3696 8.29443 18.5632 7.69546 18.5021C6.84808 18.4157 6.07728 17.9736 5.57532 17.2846C5.22076 16.798 5.10475 16.2149 5.05213 15.6413C4.99997 15.0728 4.99998 14.3494 5 13.4775V10.5224C4.99998 9.65049 4.99997 8.9273 5.05213 8.35887C5.10476 7.7853 5.2208 7.2024 5.57532 6.71582C6.07686 6.02745 6.84736 5.58417 7.69546 5.49771C8.2945 5.43665 8.85671 5.63032 9.37872 5.8739C9.89622 6.11538 10.5211 6.47992 11.2744 6.91934L13.8076 8.39705C14.5504 8.83031 15.1673 9.19016 15.6269 9.51797C15.7543 9.60881 15.8798 9.70407 16 9.80576V5C16 4.44772 16.4477 4 17 4ZM8.53301 7.68629C8.10374 7.48598 7.94722 7.48241 7.89829 7.4874C7.61612 7.51617 7.35927 7.66367 7.19177 7.89356C7.16275 7.93339 7.08701 8.07027 7.04376 8.54163C7.00101 9.00755 7 9.63803 7 10.5713V13.4287C7 14.3619 7.00101 14.9925 7.04376 15.4586C7.08703 15.9302 7.16279 16.0671 7.19177 16.1069C7.35885 16.3362 7.6154 16.4836 7.89829 16.5124C7.94729 16.5174 8.10385 16.5138 8.53307 16.3136C8.95724 16.1157 9.50255 15.7988 10.3086 15.3286L12.7578 13.8999L12.7599 13.8987L12.7663 13.895C13.559 13.4325 14.0933 13.1197 14.4678 12.8526C14.8458 12.5829 14.9252 12.4506 14.9452 12.4054C15.0595 12.1475 15.0595 11.8533 14.9452 11.5953C14.925 11.5498 14.8452 11.417 14.4656 11.1463C14.0897 10.8782 13.5534 10.5642 12.7578 10.1001L10.3086 8.6714C9.50252 8.20117 8.95721 7.88423 8.53301 7.68629Z" fill="#383B41"/>
</svg>
