<svg width="24" height="24" viewBox="0 0 24 24" fill="none" xmlns="http://www.w3.org/2000/svg">
<path fill-rule="evenodd" clip-rule="evenodd" d="M12.1866 5.3737C12.0869 5.35635 11.9673 5.3591 11.3649 5.41386L7.73509 5.74385C7.24798 5.78813 6.93712 5.81708 6.7002 5.85668C6.47564 5.89422 6.38932 5.93099 6.34344 5.9565C6.18047 6.04712 6.04617 6.18143 5.95555 6.3444C5.93046 6.3895 5.8941 6.47465 5.85695 6.69677C5.81772 6.93138 5.7891 7.23894 5.74524 7.72144L5.74464 7.72808L5.74356 7.73887L5.41264 11.379C5.35872 11.9721 5.3561 12.0894 5.37308 12.1871C5.39326 12.3032 5.43346 12.4142 5.49155 12.515C5.5415 12.6018 5.61943 12.691 6.04363 13.1152L11.2191 18.2907C11.6243 18.6959 11.8862 18.9567 12.1015 19.1394C12.3076 19.3143 12.4047 19.3585 12.457 19.3755C12.6583 19.4409 12.8754 19.4409 13.0758 19.3758C13.1286 19.3586 13.2267 19.3139 13.4347 19.1374C13.6516 18.9533 13.9156 18.6905 14.3232 18.283L18.283 14.3232C18.6906 13.9156 18.9531 13.6518 19.1368 13.4353C19.3129 13.2277 19.3576 13.1298 19.3748 13.0767C19.4397 12.8771 19.4397 12.6606 19.374 12.4585C19.3567 12.4052 19.312 12.3071 19.1361 12.0997C18.9526 11.8833 18.6903 11.6196 18.2828 11.2121L13.1201 6.04939C12.6923 5.62162 12.6023 5.54305 12.5146 5.49251C12.4129 5.43395 12.3018 5.39372 12.1866 5.3737ZM11.277 3.41354C11.7331 3.37161 12.1348 3.33468 12.5292 3.40326C12.8756 3.46348 13.2086 3.5842 13.5128 3.75944C13.8597 3.95924 14.1446 4.24473 14.468 4.56877C14.4899 4.59073 14.512 4.61287 14.5343 4.63518L19.7184 9.81934C20.0939 10.1948 20.4172 10.5181 20.6616 10.8063C20.9182 11.1089 21.1451 11.4371 21.2761 11.8404C21.4715 12.4417 21.4731 13.091 21.2769 13.6948C21.1458 14.0984 20.9185 14.4267 20.6619 14.7292C20.4181 15.0165 20.0957 15.3389 19.7217 15.7129L15.713 19.7215C15.339 20.0956 15.0163 20.4183 14.7288 20.6623C14.4263 20.919 14.0976 21.1467 13.6938 21.2779C13.0908 21.4738 12.4411 21.4732 11.839 21.2776C11.4361 21.1467 11.1087 20.92 10.8074 20.6643C10.5222 20.4223 10.2024 20.1025 9.83218 19.7322L4.62943 14.5295C4.60724 14.5073 4.5852 14.4853 4.56333 14.4635C4.24235 14.1432 3.95765 13.8591 3.75849 13.5133C3.58278 13.2082 3.46271 12.8751 3.40264 12.5297C3.33446 12.1376 3.37117 11.7384 3.41239 11.2903C3.4152 11.2597 3.41803 11.229 3.42086 11.1979C3.42086 11.1979 3.42086 11.1979 3.42086 11.1979L3.75268 7.54786L3.75376 7.53707L3.75655 7.50633C3.79641 7.06771 3.83122 6.68455 3.88434 6.36689C3.94092 6.02856 4.02816 5.69512 4.20762 5.3724C4.47949 4.88351 4.88256 4.48045 5.37145 4.20858C5.69524 4.02853 6.03009 3.94095 6.37048 3.88405C6.69082 3.8305 7.07776 3.79534 7.52195 3.75497L11.1838 3.42208C11.2152 3.41923 11.2462 3.41637 11.277 3.41354ZM7.59088 7.59165C8.37193 6.8106 9.63871 6.8106 10.4198 7.59165C11.2008 8.37269 11.2008 9.63902 10.4198 10.4201C9.63851 11.2013 8.37135 11.2008 7.5905 10.4199C6.80896 9.63838 6.81032 8.37221 7.59088 7.59165Z" fill="#383B41"/>
</svg>
