<svg width="24" height="24" viewBox="0 0 24 24" fill="none" xmlns="http://www.w3.org/2000/svg">
<path fill-rule="evenodd" clip-rule="evenodd" d="M18.0889 4.00447C18.4655 3.60055 19.0983 3.57846 19.5022 3.95511C20.6012 4.97996 21.4786 6.21913 22.0802 7.59616C22.6818 8.9732 22.9949 10.4589 23.0002 11.9616C23.0054 13.4643 22.7027 14.9522 22.1107 16.3334C21.5187 17.7146 20.65 18.9598 19.5582 19.9923C19.1569 20.3718 18.524 20.3541 18.1445 19.9528C17.7651 19.5516 17.7827 18.9186 18.184 18.5392C19.0773 17.6944 19.7881 16.6755 20.2724 15.5455C20.7568 14.4154 21.0045 13.1981 21.0002 11.9686C20.9959 10.7391 20.7397 9.52353 20.2475 8.39686C19.7553 7.2702 19.0374 6.25633 18.1382 5.41782C17.7343 5.04116 17.7122 4.40838 18.0889 4.00447ZM10.6963 3.85177C11.3586 3.74993 12.0279 3.98656 12.4791 4.48206C12.8572 4.8974 12.9315 5.45847 12.9641 5.84205C13.0003 6.26791 13.0002 6.82418 13.0002 7.47956V16.5204C13.0002 17.1758 13.0003 17.7321 12.9641 18.158C12.9315 18.5415 12.8572 19.1026 12.4791 19.5179C12.0279 20.0134 11.3586 20.2501 10.6963 20.1482C10.1411 20.0629 9.73073 19.6731 9.46428 19.3953C9.16847 19.0868 8.81886 18.6541 8.40696 18.1444L6.70273 16.0354C6.60834 15.9186 6.56058 15.86 6.52391 15.8191C6.52291 15.8179 6.52194 15.8169 6.52102 15.8159C6.51965 15.8158 6.51821 15.8157 6.51671 15.8156C6.46185 15.8128 6.38625 15.8125 6.23606 15.8125H4.81273C4.76685 15.8125 4.72141 15.8126 4.67642 15.8126C4.05746 15.8134 3.52237 15.8141 3.05918 15.6611C2.15719 15.3631 1.44962 14.6555 1.15164 13.7535C0.998629 13.2904 0.999317 12.7553 1.00011 12.1363C1.00017 12.0913 1.00023 12.0459 1.00023 12C1.00023 11.9541 1.00017 11.9087 1.00011 11.8637C0.999317 11.2447 0.998629 10.7096 1.15164 10.2465C1.44962 9.34447 2.15719 8.6369 3.05918 8.33892C3.52237 8.1859 4.05747 8.18659 4.67642 8.18739C4.72141 8.18744 4.76685 8.1875 4.81273 8.1875H6.23606C6.38625 8.1875 6.46185 8.1872 6.51671 8.18438C6.51821 8.1843 6.51965 8.18423 6.52102 8.18415C6.52194 8.18313 6.52291 8.18206 6.52391 8.18094C6.56058 8.14005 6.60834 8.08143 6.70273 7.96461L8.40694 5.85565C8.81885 5.34589 9.16846 4.91321 9.46428 4.60474C9.73073 4.32689 10.1411 3.93714 10.6963 3.85177ZM10.9078 5.98904C10.6782 6.22841 10.3823 6.59318 9.93355 7.14855L8.25832 9.22165C8.24634 9.23649 8.23406 9.25177 8.22149 9.26742C8.08541 9.43687 7.91412 9.65016 7.69087 9.81083C7.49748 9.95001 7.28077 10.0535 7.05096 10.1165C6.78568 10.1891 6.51213 10.1883 6.2948 10.1876C6.27472 10.1876 6.25513 10.1875 6.23606 10.1875H4.81273C3.97742 10.1875 3.80082 10.2002 3.68655 10.238C3.38588 10.3373 3.15003 10.5732 3.0507 10.8738C3.01295 10.9881 3.00023 11.1647 3.00023 12C3.00023 12.8353 3.01295 13.0119 3.0507 13.1262C3.15003 13.4268 3.38588 13.6627 3.68655 13.762C3.80082 13.7998 3.97742 13.8125 4.81273 13.8125H6.23606C6.25513 13.8125 6.27473 13.8124 6.29481 13.8124C6.51213 13.8117 6.78569 13.8109 7.05096 13.8836C7.28077 13.9465 7.49748 14.05 7.69087 14.1892C7.91412 14.3498 8.08541 14.5631 8.22149 14.7326C8.23406 14.7482 8.24634 14.7635 8.25832 14.7783L9.93355 16.8515C10.3823 17.4068 10.6782 17.7716 10.9078 18.011C10.9279 18.0319 10.9465 18.0508 10.9636 18.0677C10.9662 18.0438 10.9688 18.0175 10.9713 17.9885C10.9993 17.6581 11.0002 17.1884 11.0002 16.4743V7.52567C11.0002 6.81163 10.9993 6.34194 10.9713 6.01147C10.9688 5.98254 10.9662 5.9562 10.9636 5.93228C10.9465 5.94922 10.9279 5.96808 10.9078 5.98904ZM15.3609 6.92988C15.7375 6.52597 16.3703 6.50387 16.7742 6.88053C17.4736 7.53271 18.0319 8.32126 18.4148 9.19756C18.7976 10.0739 18.9968 11.0193 19.0002 11.9756C19.0035 12.9318 18.8109 13.8786 18.4342 14.7576C18.0575 15.6365 17.5046 16.429 16.8098 17.086C16.4086 17.4655 15.7756 17.4478 15.3962 17.0465C15.0167 16.6453 15.0344 16.0123 15.4357 15.6329C15.932 15.1636 16.3268 14.5975 16.5959 13.9697C16.865 13.3419 17.0026 12.6656 17.0002 11.9825C16.9978 11.2995 16.8555 10.6242 16.582 9.99826C16.3086 9.37233 15.9098 8.80908 15.4102 8.34323C15.0063 7.96658 14.9842 7.3338 15.3609 6.92988Z" fill="#383B41"/>
</svg>
