<svg width="24" height="24" viewBox="0 0 24 24" fill="none" xmlns="http://www.w3.org/2000/svg">
<path fill-rule="evenodd" clip-rule="evenodd" d="M12.9593 4.9966C12.9612 5.54888 12.515 5.99812 11.9627 5.99999C10.46 6.00511 8.97389 6.31859 7.59649 6.92029C6.21928 7.5219 4.97995 8.39935 3.95499 9.49849C3.57833 9.90241 2.94555 9.9245 2.54164 9.54785C2.13772 9.17119 2.11563 8.53841 2.49228 8.13449C3.7036 6.83551 5.16826 5.79853 6.79587 5.08753C8.4233 4.37661 10.1796 4.00605 11.9559 4.00001C12.5082 3.99813 12.9574 4.44432 12.9593 4.9966ZM15.2929 4.29289C15.6834 3.90237 16.3166 3.90237 16.7071 4.29289L18 5.58577L19.2929 4.29289C19.6834 3.90237 20.3166 3.90237 20.7071 4.29289C21.0976 4.68342 21.0976 5.31658 20.7071 5.70711L19.4142 6.99998L20.7071 8.29286C21.0976 8.68338 21.0976 9.31655 20.7071 9.70707C20.3166 10.0976 19.6834 10.0976 19.2929 9.70707L18 8.4142L16.7071 9.70707C16.3166 10.0976 15.6834 10.0976 15.2929 9.70707C14.9024 9.31655 14.9024 8.68338 15.2929 8.29286L16.5858 6.99998L15.2929 5.70711C14.9024 5.31658 14.9024 4.68342 15.2929 4.29289ZM12.9582 8.99473C12.9612 9.547 12.5158 9.99707 11.9635 9.99999C11.0094 10.005 10.0661 10.2051 9.19208 10.5879C8.31806 10.9707 7.53152 11.5281 6.88077 12.2259C6.50411 12.6298 5.87133 12.6519 5.46742 12.2753C5.0635 11.8986 5.04141 11.2658 5.41806 10.8619C6.25473 9.96471 7.266 9.24802 8.38975 8.75587C9.51351 8.26372 10.7262 8.00648 11.953 8.00001C12.5053 7.9971 12.9553 8.44245 12.9582 8.99473ZM13.5757 14.3235C13.0734 14.1082 12.5324 13.9981 11.9861 14C11.4394 14.0019 10.8986 14.1157 10.3981 14.3343C9.89741 14.5531 9.4468 14.8721 9.07413 15.2718C8.69747 15.6757 8.06469 15.6978 7.66078 15.3211C7.25686 14.9445 7.23477 14.3117 7.61142 13.9078C8.17043 13.3083 8.84634 12.8298 9.59745 12.5016C10.3488 12.1733 11.1597 12.0029 11.9791 12C12.7988 11.9971 13.6103 12.1623 14.3636 12.4852C15.1168 12.808 15.7963 13.2817 16.3596 13.8774C16.7391 14.2787 16.7214 14.9116 16.3201 15.2911C15.9188 15.6706 15.2859 15.6529 14.9065 15.2516C14.5311 14.8547 14.0782 14.5388 13.5757 14.3235ZM10 18C10 16.8954 10.8954 16 12 16C13.1046 16 14 16.8954 14 18C14 19.1046 13.1046 20 12 20C10.8954 20 10 19.1046 10 18Z" fill="#383B41"/>
</svg>
